<mxfile host="65bd71144e">
    <diagram id="ke3wFTq8es-olNbnGRXs" name="Page-1">
        <mxGraphModel dx="1205" dy="800" grid="1" gridSize="10" guides="1" tooltips="1" connect="1" arrows="1" fold="1" page="1" pageScale="1" pageWidth="1169" pageHeight="827" math="0" shadow="0">
            <root>
                <mxCell id="0"/>
                <mxCell id="1" parent="0"/>
                <mxCell id="4" value="" style="shape=image;verticalLabelPosition=bottom;labelBackgroundColor=default;verticalAlign=top;aspect=fixed;imageAspect=0;image=data:image/jpeg,/9j/4AAQSkZJRgABAQEAYABgAAD/4QAiRXhpZgAATU0AKgAAAAgAAQESAAMAAAABAAEAAAAAAAD/2wBDAAIBAQIBAQICAgICAgICAwUDAwMDAwYEBAMFBwYHBwcGBwcICQsJCAgKCAcHCg0KCgsMDAwMBwkODw0MDgsMDAz/2wBDAQICAgMDAwYDAwYMCAcIDAwMDAwMDAwMDAwMDAwMDAwMDAwMDAwMDAwMDAwMDAwMDAwMDAwMDAwMDAwMDAwMDAz/wAARCADZAv0DASIAAhEBAxEB/8QAHwAAAQUBAQEBAQEAAAAAAAAAAAECAwQFBgcICQoL/8QAtRAAAgEDAwIEAwUFBAQAAAF9AQIDAAQRBRIhMUEGE1FhByJxFDKBkaEII0KxwRVS0fAkM2JyggkKFhcYGRolJicoKSo0NTY3ODk6Q0RFRkdISUpTVFVWV1hZWmNkZWZnaGlqc3R1dnd4eXqDhIWGh4iJipKTlJWWl5iZmqKjpKWmp6ipqrKztLW2t7i5usLDxMXGx8jJytLT1NXW19jZ2uHi4+Tl5ufo6erx8vP09fb3+Pn6/8QAHwEAAwEBAQEBAQEBAQAAAAAAAAECAwQFBgcICQoL/8QAtREAAgECBAQDBAcFBAQAAQJ3AAECAxEEBSExBhJBUQdhcRMiMoEIFEKRobHBCSMzUvAVYnLRChYkNOEl8RcYGRomJygpKjU2Nzg5OkNERUZHSElKU1RVVldYWVpjZGVmZ2hpanN0dXZ3eHl6goOEhYaHiImKkpOUlZaXmJmaoqOkpaanqKmqsrO0tba3uLm6wsPExcbHyMnK0tPU1dbX2Nna4uPk5ebn6Onq8vP09fb3+Pn6/9oADAMBAAIRAxEAPwD9/KKKKACiiigAooooAKKKKACiiigAooooAKKKKACiiigAooooAKKKKACiiigAooooAKKKKACiiigAooooAKKKKACiiigAooooAKKKKACiiigAooooAKKKKACiiigAooooAKKKKACiiigAooooAKKKKACiiigAooooAKKKKACiiigAooooAKKKKACiiigAooooAKKKKACiiigAooooAKKKKACiiigAooooAKKKKACiiigAooooAKKKKACiiigAooooAKKKKACiiigAooooAKKM0ZoAKKKM0AFFGaM0AFFFFABRRRQAUUZozQAUUUUAFFGaM0AFFFFABRRRQAUUZozQAUUUUAFFFGaACijNFABRRRQAUUZozQAUUZooAKKM0ZoAKKM0UAFFFFABRRRQAUUZzRmgAooooAKKKM5oAKKM0ZoAKKKKACiijNABRRmigAoozRmgAoozRQAUUUUAFFFFABRRmjNABRRRQAUUZozQAUUUUAFFFFABRRRQAUUZozQAUUUUAFFGaM0AFFFFABRRRQAUUUUAFFFFABRRRQAUUUUAFfBf/Ba79orxn8L/AA1b+F/DOqa5ptjr3gnVtZuf7Cvm03Vpbm08SeEbSJbe8SSJ4GaDVb2M4lQHzRlhtyPvLuK+UP2v/gV4X/aU/b1+GPgnxlp9xqfhvWvhV42+128F/cWMrGLXPBU0bJPbyRzRsskaMGR1OV61nOLasiouzufLXjX4s+MvhJ4M/aE8Ex6p8XvhZNfWnhO+8G+FPHfjK717xJeG71EWN5Haaza3WqTWy6hIsdlEsVzJJays9xtgDhq+oP8Agk74n1fUfBvxS0XXNQ8aW+oeHPHV1ax+FPF+r3Gt654ItHt7aS2s7jUZ5ZmvfNRvtiyJPPEi3ohSaQQ5rubb/gmp8HR4Y8RaXfeH9e8QN4oFot/qmv8Ai3WNa1tRaS+faCDU7u6lvbYQTZli8iaPy5S0ibXJY998Cf2cfCP7Neg6hp/hOx1KL+2bw6hqV7qmsXus6lqVwUSMSXF7eyzXM7LHHHGvmSNtSNEXCqANKcrJ82+v5q2/knf8LakTV7JbXv8AhZ/jt+Nzvc18rftNft2zfsr/ABC/aB1LXprVvCPwo+FnhzxfY2zqkTzX99feI7d4zKccSnTrGNQxwpyf4jX1SetfKWr/AAS8L/HX/gpr8TtP8WaUusWOi+AvhxrtpbyTyJEt5a654wmtpHVGUSBJVVwj7kLKpKkgYzqRco8q0vpf87edi4ySd2fN37Hn7Zlt4d/Zf/aL8Bf8NKaD46174f8AgpPGdn8SI/EaeKI9IN7prrcl2hM7EWmp21zIsChisNxbIkZG1T6j/wAEjvE3iey+LfxK8NeLZviN4YvYdE8O6laeCvG3inUPFV/AstvOtxrEGo3jyMbW7uEeJbZXDQmwLyw20k5hX6l+LH7Jfw7+O/ilNZ8XeF9P16/XQdQ8Lubh5PLuNLvzC11aTRhgksbtBEwEitsK5TaSSa/wB/ZD8C/sy3+qXnhWy16TUtZhgtrvUte8San4i1B4IN/k24utRuJ5kgjMkhWFXEatI7BQWYnWLV231SVumjf6W/qzM3H3OXre938n/n/V7+pUUUUigr8zPjb8cvGfx0+I3wVs9Ssfi54wtdQ8b/FbRrzQPht4wbwjfajbaNr1zYae0ky6lpyOsEFvHndcZYljtYsa/TMdK+L/ANlf9j/wP+078EBqniqHxRHq3hH4q/E/+yL/AEHxZq3hy8sxceNdaSdRPp1zbyMrrGgKsxHy9KzlFu1ujKi7M8b0vV18Rf8ABMMeMvGniD4vaz8WvB15f+AtL0W0+JPiLQbyTWTqs1ppmk3x029gjvruMy2sU16RJ5oR5fNdPnr72/Zn+FWofAv9nzwf4P1fxJrnjDVfDuk29lfa5q95LeX2rXCoPNnlllZnYu+4/MxwCBniue8PfsM/C3wvo3gfT7TwuPsvw81ufxJoqzajd3DDVZo5o5b+5aSVmvLphcTsZroyyb5DJu3/ADV67s3CtE7J+bTfb5dtW/wM939/4v8Ayt+IhIFfnb+3N+3QtjrHxB+E/ir4pWXwls9e+L9h4M07xSNci8OzeH9Eh8L6Fr2oOt60kZSWSS5ngSQNvDX0YH3RX6JNzXyr+yP8FPC+pft4ftPfEK50tZ/GGkePYNBstQkmkY2llP4O8IzTRxx7vLUvJDEWcLvIjUFsDFZyjzaef5a/iaRdr+mn9eW55/8AB347eAf2sv8Agl5pPxU+InjLxRdQ/CzTtStPEOr+CfiDq+ix6peaaz21zOs2k3cJuluTbiaFWMgIuE2ZLZPuf/BN34T+Kfg/+x/4WtPG2qeKNS8Wawsut6nDr2u3mtXWjyXcjTrpy3N3LLM8dqjpbqXkYnySxOWNbvib9h/4XeMIfFEOo+F1mtfG3iWw8X67aLqF1Hbapqlj9m+z3EkKyiMgfY7YvHt8uUwgyK5yT630Fa33l1dvTz/H8EjNR0S7f0hw6UUUUigryH9tT4t618FPg7pOsaBPDb315478HaDK0kQlBtdS8TaXp10uDxlre6mUN1UkEcgV69Xz/wD8FLBn9nXw7/2VX4cf+pvoVD2A+E4Pix438M/FrxR48LfHiws/DPx+m0nU/G1346lvvBNhoLaklrJpzaGdSkZtyTCBGTTVWGSWObzkWItXo/wE/aG8XeIf2hNJ+J/xC0jXr3w34t+K+t/DvQLrTvilrFsuitbXeoWNnDP4Yhij06aE/YiZJ5Zp598/mlRGiiL6l/4dnfB0/EG+8RS6H4ouZdT15vFF3pVz401u48P3WpmUTfan0h7w6eziVVkXNvhXRGUBlUje0b9hL4X+HvjlJ8RLTQNQXxJJqM2sJHLruoS6TbahNF5M19Dpjzmxhu3jLq1xHAsreZJlz5j7ooXhCEZdFr90dvuf37O7Cp7zm1129Pe/zX3HsQORRRRVgfnT+1B+3Uur/ss+H/DPjT4p2fwo1D4ofF7xX4MbxauuReHG0TRND8S6rHI8d2ZI/Klay0+C0EitvMl2rdTmsZf25PGf7Tf7Dn7O2j+Cdb0/xF4m+IHjK4+H/ijVdO8Wy6Pb6rJpVlqMl00OsWkVxNarevp8ciz2yPL5VwRGysyyr9Af8E5Pgn4V1LQNU+IdxpazeMdJ8e/E3QrLUHmkY2tnP481iaaNIy3lqXeGIs4XeRGoLYGK9K8a/sG/C3x5B4ojvvDt3byeMfEFt4r1K50vW7/S7pdWt4IreK+t57aeOW0n8mGNGe2aMuA2/dvbOcItJ36tP8Vp6Wu/V28ytG79k19639U7fcYn/BOz4i2vjL4E6jpa6Vrmh6t4I8San4Y1m01PxhqHi8x3trcMJGh1W/P2m6gYMjI0gQoG8sohQqPfjXJfBv4K+Gv2fvh/a+GfCenNpmk2sksoWS5mu57iaWRpZp555neaeaSR3d5ZXaR2ZmZiSTXWqOa0b2/r/Mzimvvf3XHUUUUFH50/t5fH3xl4t8QeIPDKP481DTvD/wC0LoXg630rwPrzeHNZ1TTJ/COm6nLZrepd2eC11ezPl7mMYCjd8oFcz4A+Gnxn/aK+H2ueCfD+reNtJvPhX8WZL+/8FeMvirrWg6/b+HLnSGe10+68RaUb6e53XNwLtCs9wqxqkLS5i2r714A/Zk8H/tTfGD9pvR/GVnq9xb6L8Z9M1mwm0vXb/RLyxu4vA/hdY5orqxmhnRgsjj5XA+bkV6Ev/BNH4Qw+Ho7ODTfGNneDUZNVk1+08ea9b+JLu4eJYGM+sR3q6jOpiSOPy5bhkCxRKFxGgXKlFx5+bq7r/wAl/wAn9/mxyd3G23X/AMmX6/1Yl/4J2/Fqz+Kf7NVutvoviHw/feF9Y1Pw1q2naz4ou/FFzaX9jezW9yo1O7dp7uLzUYxyyEMYyg2JjYvvJbmuX+Enwg8N/AbwBp/hbwlpNvouh6aG8m3hLMWd3aSWWR2JeWaSRnkklkZpJHd3dmZiT1AHJrWXciN1p01t6Hkf7afxc1r4J/B7R9Z0GaG3vrzx34O0KVpYhIptNR8TaXp10uDwC1vdTAN1UkEcgV8P/svf8FK/Dvjz/go7Z65D8adF8QaL8YvEet+B7LwEni2C5l8MDTY4102/XTllZoPtb2OpM77FL/2haBj8qivq7/gqVodv4o/ZX0rTL1ZGtdS+Jnw9tbhYpnhdo38aaIjBXQh0O0nDKQw6gg16Ff8A7IXw51P4HeF/hrJ4Xto/BfguTTJtD0+CeaH+y5NNlimsnilRxKrRPDGd2/LYIYsGYGYxtNTfp9+79UtvXoVPWHKt97+my+b/ACPkr4W+FfH37GX7Xnh24+LUHiDxRZ/FPx9remeG/Een/GbxHqVtY/avt19YWl34cuUi06GJLOF4Q8LTbHiQhRnev6AbvSvGvht+wJ8LfhT8SbXxVpOiazLqmmy3M+lQ6p4m1TVtO0CS43CZ9Osbq5ltdPZld0zaxRYjkeMYRip9m6e1EdIqPbT+u4p3c3Lo/wA7/wBaDhRRRVDCiiigD8lv2hvi38Rvjt/wVV/aJ+H8Oj/Hjxxpfw98PW1n4W0j4bfEI+D10i4m0rTLsXV1/wATWwS4JnvZgGZbhgu1fLKqAea/aR/4Kv2Hj/4R/BexX9o7Q/Det+A/+EI1jxpcwa3F4bvvGd/e39lHdxfZneK4WxgtPttxdIY1j/f2+cLFIo+rPhV+wt8Pf2h/20v2pvGHiCPxpZ+JLfx9YaH9u8O+Odc8NyTWP/CHeGJvIlGnXluJV8yRm/eButfTer/sqfD3WPgzofw9fwvY2/grw3cadc6XpFk0lnBYyWFxFc2hTyWU4jmhjfGcNtwwYEglG0VHm6STfXZtv81p5BUtKba7WX3Rv+Kf3nd6Pq1t4g0u1vrG5t7yzvIknguIJBJFPGwDK6MMhlIIIIOCDVwDFNXgcU7qKNL6BqY3jnxnpvw58G6t4g1i4Sz0nQ7OW/vZ3OFggiQySOfYKpP4V+WX/BIL/gplbWjpefE749aD8SNR+JHw1l+Keux2/iOG/wD+EFvbN3kvtP8AsccjGxjFlcWZFuFQB7K6O3cWx+nPxl+DPhz9oL4W614L8Xad/a3hfxJbNZ6nY/aJYFu4GILRs8TK+1sYYBgGBIOQSD8+f8E4/gh4X+Kn/BN/9jvW9e0sXmr+A/h94a1jQbtZ5YZdPun0CO2dgY2XcrQzyo0b7kYMMqSqkTHmTdrWa+a3/wA0/kDSaS10d/ut+eq+Z4T/AMEsv25LP9o//goN8R5Ln42aJ4wHjzwXovibSPCVl4sttQtPDLNdamH0+3t4ZnjFzb2aWP2to8kyuWY7WQD9I1BrlNM+C3hrSPjFq3j6303y/FmuaXaaLe3/ANolPn2lrJPLBH5Zby12vczncqhjvwSQFA6sdPeqclZJaW0CTbm5d7fkr/iPooooA8h/b4+LetfAP9hf40+OvDksVv4i8F+BNc17S5ZYhLHFdWunzzwsyHhgHjUkHg9K/Pb/AIJ6fFjxroviX9mvxVrDfHjQ9N8eahq2ieJfEvjHxzL4k8OeNJpYrtrK2srBtTvHsZvOt0dJ2tbNVSCSIlvOVD9z/wDBWIZ/4JZ/tK/9kq8Uf+mi6pvwn/4Jm/Bv4LeINF1DRND8TXC+GZZbjRtP1rxnreuaTos0odXmtLC9u5rW3l2yyqJIolZVlkVSA7Azre6+fp/X9MH8DT67f1/XyPGv2Z7nxB8Kv+CmE3hXULn4xeHdD8ReD9QnhsPiF4pbxD/wm+o2t/B5mqaasNzdWmmwxQzfPbq1mXF7AFs0WAlfuUnJrx74HfsLfDX9nbxjH4g8NaTrr6xb2H9lWVzrfifVdfbSLIlWa1sRf3M4soGKR7orYRowhiBBEabfYF4HpVacqj11/N/p/ViftSk+tvySPJP20/i5rXwT+D2j6zoM0NvfXnjvwdoUrSxCRTaaj4m0vTrpcHgFre6mAbqpII5Ar4f/AGXf+Clfh3x5/wAFHrPXIfjRoviDRfjF4j1vwPZeAU8WwXMvhgabHGum366csrNB9rex1JnfYpf+0LQMflUV9Xf8FStDt/FH7K+laZerI1rqXxM+HtrcLFM8LtG/jTREYK6EOh2k4ZSGHUEGvQr/APZC+HOp/A7wv8NZPC9tH4L8FyaZNoenwTzQ/wBlyabLFNZPFKjiVWieGM7t+WwQxYMwMxVqim/T7936pbevQqesOVb739Nl83+R8z+O7vX/AIO/8FN/hpMbr4xeGtA8Xa5qumanrHibxU2qeF/GTy6dLPZ6Xpul291NDYSwtFuWea1sSUsZlL3Mk5Z/uReRXjfhj9g/4Z+Efi/H45t9I1q5120vrvVLGHUPE+q6jpWkXd0XNxc2WnXFy9lZzP5swMlvDG2JpQCBI4PsgPFVtBIX2uZDqKKKBhQaKKAPyX/aG+LfxG+PH/BVT9on4f2+j/Hjxxpfw+8O2tp4X0j4b/EI+D10e4m0rTLsXV1/xNbBLgm4vZgGZbhgu1fLKqAfT/jXr83x0/4J5fDfxtb/ABX+JGsfGzxt4MtNE8BweFvEV/4Zt9X8VGB2lvTp8BgE6rMpkuFvklggt7Rz5cQMvmdv8Kf2Ffh3+0N+2l+1P4w1+PxpZ+JLfx9Y6H9u8O+Odc8NyTWP/CHeGJhBKNOvLdZV8yRm/eButeueJf8AgmF8Gdf8T+H9YttE8VeFb7wv4fTwrpTeEfHGu+F0stLWTzRarHpt5bpsMmGbKksVUsTtGJhG0OXz+e8tvvS/4axU3epzrta3Ru0Vr80/6Z7p4ahvrPw7Yx6lNFc6ikCLdTRLtjllCgOyjsC2SB71eOdp9aoeGfD9v4S8N2Gl2jXk1tptvHaxPeXk15cMiKFBknmZ5ZXwOXkZnY5LEkk0viTw/a+LPDt9pl+szWeoW8ltOsUzwu0bqVYK6EOhwThlIYdQQaKl3dxM6cbJJn5G/wDBKL/gqpcfHf42fCLxt4z+M2ia5rfx6tZfCmqeAIvE1u7+F7+y062a2vk0tJWNqLq5stVLN5alv7QtAT8qCvrbxv4GutG/4KIeBLH4e+PviVrfiyLVrvxH8R7XUPFl5eaDpfh2e1u47W0fTfMFhayPc/ZktfJgS4dLOeR3kxNI+5/wT7+BHhL43/8ABIf9mPQ/FGjw6lptn4A8Ga7bxpLJbPb31rZWV3BcJJEyukizxq+VYbvmDZVmB7jwj/wTo+F/w8+KmpeMtD/4WRo+sa1r8nifUYrT4leJItN1DUJGVnmmsBf/AGSQNtVTG0JQqipt2gLVJq8VayV167Nfrf8A4Ojle0u7+75fLbz1Peh0ooooGFFFFABXkX7aXxa1r4K/CDR9Y0CaG3vrzx34O0GVpYhKptdS8TaXp10uDxlre6mUN1UkEcgV67Xz/wD8FK/+TdfDv/ZVfhx/6m+hUAfNP/BQifxb41/b71Xwrouh/H7xnDb/AAm/tHTdL+HXxHbwlHpuotf3MSXlwDqlhHLnai/duCNozERwbGl/EbxT46T9h/4iN8WvGHiKTxxqlrpGtW1nM2j6JqUo8OarLeyPYxxQvK0t3bRsUu/MELW6+SkO6UP9T/G79hL4d/tA/EyPxj4gj8a2fiSPSxohv/DvjnXPDck1kJGlEEg068t1lXzHZvnDdawPHn/BML4N/EKTwgLjR/F+j2vw/git/Ddj4c8ea94dsND8qOWJJLe2sL2CGOby5pUMyp5jLIysxBxWeHi4QUZa63+V5P8AJpFSs5uXTla+bil+DV/+HPoRWyBXgI+Nk/gn9uD40Q67rU1v4L8G/C3wn4i8iV/9H095NQ8Vi8uAOzPFZW4Y9xAnpXvFnbrZ20cS79sYCgu5diAMcsSST7k5NfLuvfBrw3+0H+3z8fvBfi7Tv7W8L+JPhF4Fs9TsftEsC3cDav4yLRs8TK+1sYYBgGBIOQSDVRNxai9SYdOY+d/+CVX7eNn8Zv2ir7QJPjPp/ji9+O/he58fWWl2niu21i5+Hl2l5Lv0pYA8q2uywu9P2xMoXzbG6YqxZ6+hP+Ccg1rQfjF+0l4Z1bxj4y8aQ+GPHlna2d34j1Rr24QS6BpdzNsXCxQI8800nk28cUCGQiOKNAFHu3xD/Z/8I/FDWPCGoazo6zX3gG/fU/D9zb3E1nLpc7201o5jaF0O1oJ5UKElCCCVyqkcX+z9+wP8Ov2YfiFrXirwj/wnya14kO/VZdY+IPiDXYtRk2RRiaaG/vZ4nmEcMUayshkVEChgvFaRcYt+ll16pr00VvMl3evnd+XR2/M9sFFFFSUFFFFABRRRQAUUUUAFFFFABRRXyf8AB7xx+0Z+0rpPiLxL4e+IHwU8J6FaeM/E/hvT9M1H4Z6pq93DBpOu3+lI8t0mv2ySPILISnbBGAZNoB25IB9YV+E37YP/AAW7/aH+D/8AwXJ0P4W2nwT8G6t418PJqfgLwxF9vu0t9dstdvNHure/dsHZiPTIC2MqnmThj+7r9Wf+FdftTf8ARZPgD/4ZvV//AJp68X8af8Exfi58QP22fBv7QOpfEz4BzfEjwJoV54f0y7Hwd1XyhBcNne6/8JLuMkatcJGwYALeT5DEqUAPuCwE62UP2poWudi+aYlKoWxztBJIGc4yTVivn/8A4V1+1N/0WT4A/wDhm9X/APmno/4V1+1N/wBFk+AP/hm9X/8AmnoA94vxO1lN9laFbnY3lGVSyBscbgCCRnGcEV+F37H3/Bbr9of4w/8ABcrXPhbd/BPwbpPjbxCmmeAvE8X2+7e30Ky0K81i6uL9GwN+Y9TnK5wr+XAFP7yv1Z/4V1+1N/0WT4A/+Gb1f/5p68X8F/8ABMX4ufD/APbZ8ZftA6b8TPgHD8SPHehWfh/U7s/B3VfKMFu2d6L/AMJLuEkirbpIxYgrZwYCkMXAPuiivk/4w+Of2jP2atJ8O+JfEPxA+CnizQrvxn4Y8N3+mad8M9U0i7mg1bXbDSneK6fX7lI3jF6ZRugkBMe0gbsj6wzQAUUZr5fsPiF8ePjn8fPjBpHgjxp8I/Bvhv4Z+KLTwxbQa58P9R1++vWk0HSNVed54daskUb9TaMIIeBCCWJbAAO2/wCChHxv8efs0/sc+OviB8N/DGl+MvFPg3Tm1dNFvpJI0v7eEh7lUaP5vMWESOoAO5kC4+bI/PP/AINlv+CpfxS/4KCX/wAQtBvfh74d8P8Aw98M6vrfia81yC6nkuJdT1zW7zVFsY1bCFY/tVxluSFiiyMyZr70l+Gv7Uk0bK3xi/Z/ZWGCp+DWrkEeh/4qevG/2Iv+CZXxe/4J5/CjUvBnwx+JnwF0nRNX16+8Q3CSfB/VXY3F1LuKAjxMv7uKMRwxjGRFDGCWYFmAPuaivn//AIV1+1N/0WT4A/8Ahm9X/wDmno/4V1+1N/0WT4A/+Gb1f/5p6APVvjTq3ijQfhF4mvvBGm6drHjCz0y4uNFsNQlaG1v7tI2aKCR15RXYBS38O7ODjFfjj/wQb/4LSfGb9vb/AIKK/E7we3wn8N+H9H8Way/jXxpfNc3Xm+GxbaPpmjJbRowAaSSTToPlfBBlmOCI8V+nH/Cuv2pv+iyfAH/wzer/APzT14x+zR/wTF+Ln7JPxZ+LPjbwT8TPgHp2vfGjXU8QeIpT8HtVZWnWPbsiA8SgrGZGnnKksfNupjnaVVQD7nor5B/ao8X/ALUX7Lv7MPxG+JknxM+AevRfDvwvqfid9LT4T6tZtqK2VpLcmATHxJJ5Rk8rbv8ALfbuztbGD9fUAFFFeX/tp/GvUv2af2Ofi18RtItbO+1bwB4M1jxJZW14GNvcT2djNcRpIFKtsZowG2sDgnBB5oA9Qr8if+Dmn/gqX8Uv+Cfd/wDD3QbL4e+HfEHw98Tavoniaz1ye6njuItT0PW7PVGsZFXKBZPstvhuCVllwMx5r72/4V1+1N/0WT4A/wDhm9X/APmnrxn9t3/gmV8Xv+Chnwo03wZ8TviZ8BdW0TSNesfENukfwf1VGFxay7ghJ8TN+7ljMkMgxkxTSAFWIZQD3z/gnv8AG/x5+0t+xz4F+IHxI8MaX4N8U+MtOXV30WxkkkSwt5iXtldpPm8xoTG7AgbWcrj5cn2qvn2L4a/tSQxqq/GL9n9VUYCj4NauAB6D/ip6d/wrr9qb/osnwB/8M3q//wA09AH0BXiv/BQj43+PP2af2OfHXxA+G/hjS/GXinwbpzaumi30kkaX9vCQ9yqNH83mLCJHUAHcyBcfNkZP/Cuv2pv+iyfAH/wzer//ADT02X4a/tSTxsrfGL9n5lYYKn4N6uQR7/8AFT0AfBX/AAbLf8FSvil/wUEv/iFoN58PfDvh/wCHvhnV9b8TXmuQXM8lxLqeua3eaotjGrYQrH9quMtyQsUWRmTNfrvXwz+xF/wTK+L3/BPP4Ual4M+GPxM+Auk6Jq+vX3iG4ST4P6q7G4updxQEeJl/dxRiOGMYyIoYwSzAs3q/w3+I/wAZPAf7Y/hf4c/EbxR8NfGGk+MPBmv+JLa58N+Db7w7cafPpl9oluEcz6rfLMki6sx4WMqYBywYgAH0fRRRmgArlfjTq/inQvhF4mvvBGnadrHjCz0y4n0Ww1CVobW/u0jZooJHXlFdgFLfw7s4OMVxP7bvxk8TfA74BprHg1tCh8San4p8M+GLKfWbGW+sbNtW17T9KaeSCKaB5REl60gRZo9xQDcAc1z/APwrr9qb/osnwB/8M3q//wA09AH5j/8ABBv/AILSfGb9vb/gor8TvB7fCfw34f0fxZrL+NfGl81zdeb4bFto+maMltGjABpJJNOg+V8EGWY4IjxX7cV8Mfs0f8Exfi5+yT8Wfiz428FfEz4B6dr3xo11PEHiKU/B7VWUzrHt2RAeJQVjMjTzlSWPm3UxztKqvs//AArr9qb/AKLJ8Af/AAzer/8AzT0AfQFFfP8A/wAK6/am/wCiyfAH/wAM3q//AM09H/Cuv2pv+iyfAH/wzer/APzT0AfBP/BzR/wVL+KX/BPu/wDh7oNl8PfDviD4e+JtX0TxNZ65PdTx3EWp6HrdnqjWMirlAsn2W3w3BKyy4GY81+hn/BPf43+PP2lv2OvAvxA+JHhjS/Bvinxlp66u+i2MkkiWFvMS9srtJ83mNCY3YEDazlcfLk+B/tu/8Eyvi9/wUM+FGm+DPid8TPgLq2iaRr1j4ht0j+D+qowuLWXcEJPiZv3csZkhkGMmKaQAqxDL7JF8Nf2pIY1VfjF+z+qqMBR8GtXAA9B/xU9AH0FRXz/+zZ8Uvih/w1B8Q/hn8Sdc8BeJ5PC/hfw74n0/VPDPhm70BSupXet20kEsNxqF9vKf2SjK6yJnzmBX5QT9AUAFFFFABXK/GnV/FOhfCLxNfeCNO07WPGFnplxPothqErQ2t/dpGzRQSOvKK7AKW/h3ZwcYrxr4kfEf4yePP2x/FHw5+HPij4a+D9J8H+DNA8SXNz4k8G33iK41CfU77W7cohg1WxWFI10lTyshYznlQoBv/wDCuv2pv+iyfAH/AMM3q/8A809AH5j/APBBv/gtJ8Zv29v+CivxO8Ht8J/Dfh/R/Fmsv418aXzXN15vhsW2j6ZoyW0aMAGkkk06D5XwQZZjgiPFftx1r4Y/Zo/4Ji/Fz9kn4s/Fnxt4J+JnwD07XvjRrqeIPEUp+D2qsrTrHt2RAeJQVjMjTzlSWPm3UxztKqvs/wDwrr9qb/osnwB/8M3q/wD809AH0BRXz/8A8K6/am/6LJ8Af/DN6v8A/NPR/wAK6/am/wCiyfAH/wAM3q//AM09AHG/8Fk/22/iN/wTq/Yxv/i38PfBWiePE8M30A1+w1CeaE21hKTGbmMx5J2StEGBGAjs2QEOfAP+DYX9t74jftn/ALCGm2/iPwTonhnwL8J9L0rwH4c1G2nmkuvEMlhZRxTzOr4VVVVg5XILyOMjyzn6V+Jf7On7Rnxg+HWveE/EnxU/Z51Xw/4m0+fStTs5vg3q5juraeNo5Y2/4qfoyMR+Ncf+yB+wV8dv2Hf2bPCPwr8CfFr4E2/hfwbZCztTc/B/VXuLlizPLPMy+JVVpZZHeRyqqCznCgYAAPszpRXl/wCxZ8a9S/aW/Y5+EvxG1e1s7HVvH/gzR/El7bWYYW9vPeWMNxIkYYs2xWkIXcxOAMknmvUKACiivnD4kfEf4yePP2x/FHw5+HPij4a+D9J8H+DNA8SXNz4k8G33iK41CfU77W7cohg1WxWFI10lTyshYznlQoBAPl7/AIOev23/AIjfsY/sIalb+HPBOieJvAvxX0zVfAfiPUbmeaO68OyX9lJFBMiplWVlaflsAPGgyfMGPfv+CNn7bfxG/wCCin7GNh8W/iF4K0TwGnia/nGg2GnzzTG6sIiIxcyGTBG+VZQoAwURWyQ4xi/tf/sFfHb9uL9mzxd8K/Hfxa+BNx4X8ZWRs7o23wf1VLi2YMrxTws3iVlWWKREkQsrAMgypGQew+Gn7On7Rnwf+HWg+E/DfxU/Z50rw/4Z0+DStMs4fg3q4jtbaCNY4o1/4qfoqKB+FAH05RXz/wD8K6/am/6LJ8Af/DN6v/8ANPR/wrr9qb/osnwB/wDDN6v/APNPQB8E/wDBzR/wVL+KX/BPu/8Ah7oNl8PfDviD4e+JtX0TxNZ65PdTx3EWp6HrdnqjWMirlAsn2W3w3BKyy4GY81+hn/BPf43+PP2lv2OvAvxA+JHhjS/Bvinxlp66u+i2MkkiWFvMS9srtJ83mNCY3YEDazlcfLk+B/tu/wDBMr4vf8FDPhRpvgz4nfEz4C6tomka9Y+IbdI/g/qqMLi1l3BCT4mb93LGZIZBjJimkAKsQy+yRfDX9qSGNVX4xfs/KqjAUfBvVwAPQf8AFT0AfQVFfP8A/wAK6/am/wCiyfAH/wAM3q//AM09dh+xZ8a9S/aV/Y5+EvxG1e1s7HVvH/gzR/El7bWYYW9vPeWMNxIkYYs2xWkIXcxOAMknmgD1CiiigArlfjTq/inQvhF4mvvBGnadrHjCz0y4n0Ww1CVobW/u0jZooJHXlFdgFLfw7s4OMV418SPiP8ZPHn7Y/ij4c/DnxR8NfB+k+D/BmgeJLm58SeDb7xFcahPqd9rduUQwarYrCka6Sp5WQsZzyoUA3/8AhXX7U3/RZPgD/wCGb1f/AOaegD8x/wDgg3/wWk+M37e3/BRX4neD2+E/hvw/o/izWX8a+NL5rm683w2LbR9M0ZLaNGADSSSadB8r4IMsxwRHiv24r4Y/Zo/4Ji/Fz9kn4s/Fnxt4J+JnwD07XvjRrqeIPEUp+D2qsrTrHt2RAeJQVjMjTzlSWPm3UxztKqvs/wDwrr9qb/osnwB/8M3q/wD809AH0BXyd/wWT/bc+I//AATr/Yxv/i38PfBei+PE8M38A16w1CeaE2thKTGbmMx5J2StEGBGAjs2QEOex/4V3+1N/wBFk+AP/hm9X/8AmnrD+Jf7On7Rfxg+HWveE/EnxU/Z51Xw/wCJtPn0rU7Ob4N6uY7q2njaOWNv+Kn6MjEfjQB81/8ABsL+2/8AEb9s/wDYQ0238R+CdE8M+BfhRpeleA/Dmo2080l14iksLKOKeZ1fCqqqsHK5BeRxkeWc/phXxn+yB+wV8dv2Hf2bPCPwr8CfFr4E2/hfwbZCztTc/B/VXuLlizPLPMy+JVVpZZHeRyqqCznCgYA9M/4V1+1N/wBFk+AP/hm9X/8AmnoA+gKK8v8A2LPjXqX7S37HPwl+I2r2tnY6t4/8GaP4kvbazDC3t57yxhuJEjDFm2K0hC7mJwBkk816hmgAoorx/wDbd+MniX4HfANNY8GtoUPiTU/FPhnwxZT6zYy31jZtq2vafpTTyQRTQPKIkvWkCLNHuKAbgDmgD2CvyJ/4Oaf+CpfxS/4J93/w90Gy+Hvh3xB8PfE2r6J4ms9cnup47iLU9D1uz1RrGRVygWT7Lb4bglZZcDMea+9v+FdftTf9Fk+AP/hm9X/+aevGf23f+CZXxe/4KGfCjTfBnxO+JnwF1bRNI16x8Q26R/B/VUYXFrLuCEnxM37uWMyQyDGTFNIAVYhlAPfP+Ce/xv8AHn7Sv7HPgX4gfEjwxpfg3xT4y05dXfRbGSSRLC3mJe2V2k+bzGhMbsCBtZyuPlyfaq+fYvht+1JCiqvxi/Z+VVGAo+DergAeg/4qenf8K7/am/6LJ8AP/DN6v/8ANPQB7vfRSXNlNHFM1vJIjKkqqGMTEcMAcg4688V+B37F37cH7b3xD/4OAvEnwZ8Raj4Tt9asRZaJ461KDw0iQ/8ACN6PcX13BcwqWPlm4XVnEbnOTeQZGFr9ev8AhXX7U3/RZPgD/wCGb1f/AOaeuH0H9i/45eG/j74g+KFj8RP2dLfx14p0mz0TU9VX4Nav51zaWrzPCh/4qfAwZmyRywSIEkRpgA+uMUV8/wD/AArr9qb/AKLJ8Af/AAzer/8AzT0fs2fFL4of8NQfEP4Z/EnXPAXieTwv4X8O+J9P1Twz4Zu9AUrqV3rdtJBLDcahfbyn9koyusiZ85gV+UEgH0BRRmigAoozXnvwE/ai8C/tQHxp/wAILrn9uf8ACu/Fd94J8Q/6FcW39n6xZeX9ptv30aeZs81P3ke6Nt3yucGgD0KiiigAooooAKK8v/a7+POo/s2/BVvEmj6DZ+JtYute0Lw7p2nXmptpltPdatq9npULTXKwTtFEkl4juywyNtRsKTiuP/4WN+1N/wBEb+AP/h5NX/8AmYoA+gK+f/8Agmp/ybt4i/7Kr8R//U312j/hY37U3/RG/gD/AOHk1f8A+Zis3/glVdape/snahJrlnp+n63N8SviE+oWlhePe2trcHxprZljineKF5Y1fcFkaKMsACUQnaAD6Rr5xg/as+KHjv8Aaw8e/D7wV8NvAepaB8OLvSrfV9a1vx3d6ZeSi9tUuS0FnDpNyjmNGIAe4TcwHKg5H0divmPwr/wTk8H6t+278Tfi9468D/DXxdqGvX+iXvhHUr/RoL/V9Aaxso4mZJZod1u3noJEMLnoGyrcVOvMu3UfR9y/48/b/g8D/t06D8H5fDEk2h6lHbWt74rOohIdM1e7gvbmz05oPLO5pYLCVt/mLtaa2UKxlBHI/Fr/AIKc6l8OP2t7r4e2fgPSdW0fR/FOgeEdSuT4o8nxE9zq8Pnw3VnpItXFzZRR72kma5iYLaXzLGwtmJ838Zf8Elfil46+GXxA1uX41arpPxO8W+Mm+IVno1la6ZL4Tg1WznibR0lnl006r5McFnZRSmO4QnbLtTaxVtT4r/8ABPP4sfE79qq88ZSzeBXmvPFWi+IdH8ct4h1CPxL8P7C1itFvdD06zFoYZrO6MFyJM3UCSjUJGmgkaNQxT1cOb5+jt/m9ui76NS0UrdVZeTXX0emnd9j7wU5FB5oHAoqgPn7/AIKUjH7O/hz/ALKr8Of/AFN9CrE+J3jvxl8fv2ztd+Enhf4g6t8LdF8B+GdL8Q6rq2h2Gn3Ws6tdajPfxW9rGdRtbq1it447CV5MQNLI0sQV4ljcSu/4Kz22u3X7HlvF4ZutLs/E0nxF8AJpFxqVu9xZQXh8ZaIIXnjR0d4hJtLKrqxUEBgTmvxp1z9g7/gohq//AAW7+HHiT4n+Lr3S9d1Ce8sNC+JegaVbar4b0mGKwv3jiW3aExQgrLcRol1Crkzuw3MdxOqYfZa66W+9fpdfM/VT9ujw/wDF74LfBrS7rw/+0h8SF+JHii90/wAH+GdPsPD/AIYj0vUtVuHES3U0M+lXE+1Illu7lY51XbbzmNYVwiem/sM2NzpXxr/ahtry+m1K6t/iZp0c95JGkb3TjwP4UDSMqAIpYgkhQAM8ACvLtN/YX/aKg+JXw38U6p8Vvhv4m1P4XaXfWWlDWPD2qXEdzdXojSfUrjF+Ge78tZI0KssUaXEypEoI297/AME6LXxTa/E79qCPxpeeH9Q8TL8VLX7ZcaJZTWdhJ/xRnhfy/LilllkXEewHdI2WDEYBAAtFrvdv5dF/XfyJ3afkvv6/1/mfULHivnX4y/tYfEjSP2tR8KPhz8O/BPiq+h8Kx+KbzUPEnja60CKKOS7ltlhjSDS74u2Y9xJKDB9q+is5r5j+L3/BOPwn+0Z+3N/wsb4jeCfhv4+8I23gmHw9Y6f4j0eHVbizvVvprh5kjnheNFMcirvV9xIIK45rFuXtIdru/pZ/rYr7D76W+9fpctftUf8ABQI/st/Fv4d+F7zwourQeJPLuPFWpw6r5Vv4MtJb200+C5cNDmdHvLxEGfKxHDPIT+72mP8Abi/aw+LX7JXhLxB4u0b4afDbxZ4P0mK3S0N78Q77Stb1e7ndIYrOGzj0a5iM0txIkUQ+04YupOzJx5z8Yv8AglV4q/ag+Ifxy1rxZ8XvE3g2x+KVlB4VsdI8J2mk3NomgWtuwt0uX1DTpp0nNzcXkzC1liC+YgVyyhx3y/szfFD4wap+z3H8TtR8H3elfDW0/t3xfFplzcyf8JB4lggSGyeJJIkH2ON3ubr9427zktsIdm+tKesVfe+vo+nql+LB6S01VrfPTf1f4I+j/Dt1eahoVnNqVnHp+oTW8b3NtHP58dtKVBeNZNq7wrZAbaM4zgZxWiBikAxSk4p77CjdKzPn3/gq+P8AjVn+0r/2SrxR/wCmi6rsP2vf2jYf2Yf2S/iF8UIbaHWY/Bfhy+12K2E22O9aCB5Ej3qGwrMoBYA4BJwa/Lj/AIOa/wBn79t7xx8KfGOveA/iBot1+zzpmkXN74g8NeHx/YurQ2EULPcveySSMb2ERh96xyorLwbc4yfpH9gv9mf9ojxT/wAEu/hN4L1fxx8GNN8N6h8OdN0a98N+I/hDqtzfW1q+npFJZXjjxDAHkCExyEQxZO75E6BSvy6b/caU3FSTltfU9O+JGt/FL9ij9mXxt8a/F3xe1b4iS+FfB+pa7qfhS50DTLPQ/tcduZ40097a3jvYIllXYPtVxeMYmO4l/wB4PB/jL8bfFWtfsCftY+D/AIma58YF8fS/A/XPEKaN4z0zwxaaf9lk02/ikudK/sXzHEAmXYYr65luI1MG7ly79R4P/wCCU/7SmkeDr3wj4m/a08O/ETwBcaHdeHYPCviP4W3DWFpZXEXkFGmttbgvLpkhJjR7y4uGGd+TIBIPMf2n/wDgnd8f/wBm39gz9pDxT4p/aK8E/Fi+l+D+saFd32ufC2Wz1SPRLXTbyQafay2usR28JYySt58ttPIXZWkMoRUFXXPfpbT8fx2+Rlyv2aX2r6vo9v8Ag/M/Vig0UHpQUfOXxk/ax+I+kftaL8Kfhz8O/BPiq+h8Kx+KbzUPEnja60CKKOS7ltlhjSDS74u2Y9xJKDB9qg/ao/4KA/8ADLfxb+HXhe98KLq8PiTy5/FWpw6r5Vv4Ms5b200+G6cNDmdHvLxEGfKxHDPIT+72mn8X/wDgnJ4T/aP/AG5v+Fj/ABG8E/Dfx94StfBEPh6x0/xHo8Oq3FnerfTXDzJHPC8aKY5FXer7iQQVxzXBfGL/AIJU+Kv2oPiF8cta8WfF7xN4NsfilZQeFbHR/CdrpNzaJoNrbstuly+oadNOk5ubi8mYWssQXzECuWUOMaMpcsefe8r+l3ZX89OmwS+KVttLetlf9beZ2v7X/wDwUt0n9mz45ad8N7C4+FMPiu50yHWLl/iD8Qo/BmmpBPNJBbxQTfZbuW5upXhmIiSHaqREvIpaNX+n7NpHt4zMqJKyguqOXVWxyASASM98D6Cvhbx3+wx8d9esNYv1b4S694q+LnwosPhv8QrrUdUvIbXTbq2F2n9pWMQsZTeo66hcs1rMbYExxDzcMSv2f8L/AAPF8MPhvoHhuG6ur+HQdOt9OS5uXLzXCwxqgd2JJLNtySTySa2tZNP7/m/w29b+RMm+bTay+Tsv1uvl5nR188/FG7isP+CoPwfnuJI4YIfhR49d5HYKsajVvBpJJPAAHevoYdK/nV/4OVf2Qf21vix+07pkP/CQL8VPCN54c13UdB0DwLpcun3Wm6LBd6SuoR3VoGeW5Bmn0okCWfeYg4SMR4AUftd+2z8bPEngu++F/gfwZqlvoHiL4weJ38Ow67JbLdNoltFp15qFzcwRODFJceTZtHF5oaJZJVd0lVDE/mP7T3wy/aT+FngfwrZ+AfiR8WPiVbz+LUm1690zTfBlp4stNH+wXQeKJ763ttKkX7YLRh/o6TKpkG+QEbavxy/Yi/aI/ac+FGh6Pqvxt+D+g3uiXNrrWh6zpHwm1SDVfD9/ChEVzBI/iNo94V5EZZI3jkSSRHjZHZTy8v8AwTl/bIfRoyv7dkaeJEvTcnxAPhND50kJi8v7IbE6p/ZflD7+8WQm38+bjip6Ndbp+q0+7qVf3lbazXzd9fuat5q5sePfjRZ/HT/gnV4J1S31zxtr19YfGHwNpGrS+MLKxstdtL+1+IOkQXNteRWEUVoJYZEaPMCeWwRWDPne33FjH9K/Ob4ofsjfFz9k/wDZo8FaDqnxK+GPibwmvxf8DanrYtPh7qOn65r1/d+OdInnu5L2XXLmJJZLqXzXAtim3dHGkS7Nn6M9P6VUnf8A4BnFWVul3b0Fr5xg/as+KHjv9rDx78PvBXw28B6loHw4u9Kt9X1rW/Hd3pl5KL21S5LQWcOk3KOY0YgB7hNzAcqDkfR2K+Y/Cv8AwTk8H6t+278Tfi9468D/AA18Xahr1/ol74R1K/0aC/1fw+1jZRxMySzQ7rdvPQSIYXPQNlW4qdeZdupXR9y/47/b+t/A/wC3VoPwfk8LvLoepxW1pe+LDqISHTNXu4L25s9OaDyzuaWCwlbf5i7WmtlCsZQRxml/8FPrrxF+3v4o+CdnZ/BTTZvCuvWmjGPxB8UW03xRrKTWFveyXFhow02Q3Cok7KB9pUM0L5ZByPPPGP8AwSV+KXjr4afEDW5vjVquk/E7xb4yb4hWejWdrpkvhODVrOeJtHSWeXTTqvkxwWdlFKY7hCdsu1NrFW9U/aT/AGfPjT+1qbXwN4n0z4T6T4Bt/FWj+JE8T6frF9ca5bR6feW1+tvFp0lmsKztLAbf7V9twI3MnkZPk0U9XHm+fldr77a6dV5iqac3L8n5+nZ6fj0PrAHNFA6UVQz5++HRx/wVL+MhP/RKvAn/AKdvGVclZeIfiJ+2P8f/AIt6T4Z+K+vfCfw78I9ag8LWsXh7SdKvbrWr59Ns9Qmub1tRtLkeQovIoo4bcQt+7mZpm8xFi+cf+CovwO/ai+Ov7Xvxf039l34kaJ4A8RR/CvwUdWhuofJvdZhOqeL/AC47S/w32ORcSc7AXLp++hCHf8q/8ESv+CTf7aXhj4Y/FKa8+O3i79mvxZfeLprPxDp+s+C4/FE3igC0tpFvUu7i8EWMyyoJ7QB2IfdO+yNYiMdbvtp63Wr8rX+8NbafM/QL4v8A7XvxLn/bs+Dvh3wz4k0+H4c2vi9vAvjCSDS4x/wlGsnQ77UJ44jKJGggtfs9tzDIWaW4liZz5DBvuJeSK/Onx/8A8EQde+IfxJ8I+LrzUP2TrfxJ4V10+IpdRh/Z/uHvfEN15E0WdSuJfEDz3eXm88s8m8zxRyFyV5+lh8Of2pf+ixfAH/wzmr//ADT0RtyJPe+v4frf0CXxJrayXzTf6WHfDn/lKd8ZP+yVeA//AE7+M6+gD0r5p+AtlrVj/wAFHfilD4iv9L1bXovhH4AW/vNNsJNPtLmYat4y3vFbyTTvEhPRGmkIHBdutfS1AHF/tA/FQ/Az4E+NPG32Aap/wiOh3us/Y/P8j7X9ngeby/M2ts3bMbtrYznB6VwX7Of7QXxA8d/C5/HHxL8G/D/wH4Ym0SHXLOfRfG13r0wheLzn+0pNpdksOyPByjy5O4cAZPY/tRfDDUPjV+zb8QPBuly2lvqfirw7qGkWkt0zLBFLcW0kSNIVVmCBnBJCk4zgHpXzj4z/AOCVOk6R+wlN8I/hh4b+Gnwv1bx5Y6RoHj/XfD+jW+n3GoabFtW/aNo7b/Sbh4jcJF9pXaDcMzd1bn9/mn6Rt6u9/wBCny+76u/orf8ABPRv2Ef27h+1/wDCbXvEHiDwu3w21fw1PE2o6PfaktzJaWdxZwX9ndySeXHtWW1uI2YFcI6TJubyyxb+wJ+3bJ+3Na/EO5/4QvUPBdr4N8Qx6VYC/u/OudWsprG2vra8ki8tDbNLBdRt5JLsmRubdlR5P4o/4JN+J/EHxL8YQ33xq8c+IPBHxX8GxeGPFtzfQaJZ65aNY3SS6f8AY0tNKjsZIHhmv7e4W5gZjHKgDEfKvov7DH7E/jX9lv40fGfxF4m+J2vePNP+Ieu2uo6dHqEWmRylItNs7Uz3ItNPtVS43W7RhYiYfJSI7PMLseqKjzNvbl09brV+qvb+rZ6qPnf8PL5vrrofTtFFeb/tV+EfiZ46+BOvaX8I/GWh+AfHl1Ft03WtX0X+1re1b/rj5iqGPADsJFXkmJ+lSUeef8EqNUtoP+CZH7MdpJcQJd3Hwn8NSQwNIBJKqaTZh2VepC71yR03DPUVynwB1r4oftotrnxH0v4uav4C0PS/F+qaFoXhbTdC0y80u8tNK1Oewkk1J7m2a9lluZLaZj9lubVY43iVcujyyfkP/wAG/X7Cn7Xngz9tHwr4817VdU8P+G/FnwYhk8I+L9bsX8V6T/Y8n9ly2mmxqt1ELV1h2bYXdCqwPtjZfmH6e2X/AAS2+PHhfxj4gvvC/wC1dL4O0XxZrDa9rXhzRvh/FFpt9eSMr3EqO9693a+ey7pRaXEIZmd8B5HZlHSV32/G63CWsLLe6+6zvb8PuN/Wf2gfGvgP/gpd4L8Hr8R/F2raH4q1DVrfWtB8ReD4dA8M2NulkbiyTRdQltIptSvwwiEkcN5eBlN5IY7dYlRPUPhyc/8ABUz4x47/AAq8B/8Ap38ZV4zL/wAEx/j1rvxW0HxL4i/aoXxZa+EdbuPEXh7Q9W+HkT6fot/Mk8fnI8d8lzMI47q4jjS4nlSNZMKo2RlO2/ZO8M+NPCv/AAUh+Ndv468WaP4y1d/ht4GkhvNN0E6NFFAdU8XhYjCbifcwYO2/eMhwNo25Lj8CvuD+J9v1PrHGTXG/tBfFb/hRfwJ8aeNvsP8Aan/CI6JeayLPzvJ+1fZ4Hm8rzNrbN2zG7a2M5weldln5q4H9qH4YX3xs/Zs+IHg3S5bW31PxV4d1DSbSW6ZlgjmuLaSJGkKqzBAzgkhScZwD0rHEc6py9nvbT1NKfLzrm2ucd+zn+0D8QPHXwtbxx8TPBvw/8B+F59Eh1yzuNF8a3euzCF4vOf7Sk2l2Sw7I8HKPLk7hwBk8/wDsT/t3aj+1/wDBDxP4gm+HuoeGfGHht1ZvCL6rFPeXEVxYw3+nuJZFhRDcW9xEPnwscolQu3llq8/8af8ABKjSdI/YTm+Efww8N/DT4X6t48sdI0Dx/r3h/RrfT7jUNOiKrftG0dt/pNw8RuEi+0rtBuGZu6tpeDf2E/id8Bf2hPE/jbwv8Sv+FkQ+MvAz6BqVt4/tbC18u/snLaQUTSNPtYntttxexT7180K0W1nC7BtK3PPtsvVa36+iMIXcYt77/pb82/RHov7LP7Vnib4v/GL4jfDvxz4N0Lwn4x+HKaZdXX/CP+JJPEOlXNvqEUrwgXMlnZyJcL5Em+F4QQrROGZZBj3bOa+Wv2Dv2NfEX7O3xV8a+JLrwv8ADf4SeF/ENjY2Nj8O/h7qM174ftbmBpmm1Yl7OxjS6nWWKF1itVylpGWkkJAT6lVef92nK1lYet2un/AQpNfCXwT/AGmLz9mr/giX+zLceHptEHjTxR4F8BeG9Aj1TdJbxXGoppWnrdSQoyySxQNdpIyKy7sKm9N4YfUv7Vvgz4j+P/gVr2lfCbxpo/w/8eXkO3Tdc1LRRq0Fm3/XEuq7j0DsJAuSfLfpX8+H/BG7/gkp+0t8VPjppt58SLjVtM+H3xK+C1q/hrxfqUU3iKxg03zNJutOs7d4ruGSwuYAkMkK+YjRG1JRCBuEdu11dd1fVFxev9fefvJof7OXxV8NeF9c01f2hvF2vTa1bQRQ6prfhfQ5L/QpVmBnlsvslpa2+XhMiot1BchJPKc+YqvDLhf8E8viJ4z8dR/FO18QeLtS+I/hPw34wk0fwl4u1GysrS81y2itbf7Xv+xQQW0qwX5u7dZooUDeQQclCx8b8U/8Evv2lfHfwz8SeGde/bb8UamviTTo9LOop4CtLG7sLdZA7rCLW5ih3y4CPLLHJKULKHUM2e0/Z8/Yi/aQ/Z98HxaBB+1F4e8QaLY28FnpdjffB/TLG30W3hTYkNvHp1xaose3aNrBgAihdozmouzd+1vxTv6/8Eh3sl5/oehfDn/lKd8ZP+yVeA//AE7+M6+gD0r5N/ZO8M+NPCn/AAUi+Nlv468W6P4y1h/ht4GkhvNN0E6NFFAdU8XhYjCbifcwYO2/eMhwNo25P1lQUcX+0D8VD8DPgT408bfYBqn/AAiOh3us/Y/P8j7X9ngeby/M2ts3bMbtrYznB6VwX7Of7QXxA8d/C5vHHxM8G/D/AMB+GJtEh1yzuNF8a3evTCF4vOf7Sk2l2Sw7I8HKPLk7hwBk9j+1F8MNQ+NX7NvxA8G6XLaW+p+KvDuoaRaS3TMsEUtxbSRI0hVWYIGcEkKTjOAelfOPjP8A4JU6TpP7CU3wj+GHhz4afC/VvHljpGgeP9d8P6Nb6fcX+mxbVv2jaO2/0m4eI3CRfaV2g3DM3dWw9/mn2tG3q73/AEKfL7vq7+itb9Tu/wBi79vPVP2uPgP4q8RP8OdR8P8AjLwuVZvB/wDasM19dxXFjDqFgwllWCNGube4iHz7UjlEqFyIy1av7On7VvjDx7+0F4t+FvxE8B6B4P8AFnhnQ9N8SRv4f8US+IdNu7O9lu4UBmlsrOSKdJLOTMZiKlSrK55A4HwX+xH8Vv2cf2h/E3j/AMG/EhviVJ4q8Dvol3bePlsdN8rU7Fy+jOn9j6bbxm2AuLyOctGZQpi2MwXaN79gL4NfF74R3/iG6+K3hv4eSeIvFjDUte8W6N41u9Yv9ZvVwkUAtZdIsktbGGIskESTSeWqjPmSSSzv0+637u1tn3/D1/Ay95R177+tnt26L72fTwoooqSz5y/4Jda1aeHP+CUP7Od/qF1bWNjZ/CbwzNPc3EqxRQRro9qWd2YgKoAJJJwKP2mvin4s8Y/tOfD74MeC/FU/gWTxZoereK9X8S2FnbXmp21jp8thAtvZJdRTWqyzTX8ZaWaKULFFIqx75Fkj/Cr9tb/gmD+3Z+0h/wAE3/gP4g8OeNrz4v8AwbX4aeG7qw8DeHl/s260WAaVbNGklgpxqLoCFEoaWZjkiKMcD9ivir/wT4+OnxxfwRrzftEaH4R8XeCUd9E13Rfhssd/YJcRIlxbss+oSwTQyqib45oXXdFG4AeNGVfaTe3X7tPx1GuvfoXf2zL/AONf7LPwP8JanY/GmbWIbDxvoOnXl3d+EtOXWddtr/XbK0MF1Mii0Ea29xOrG2soJGYQMskeyRZvSf8AgpV/ybt4b/7Kr8OP/U30KvAPi5/wSi/aH+N3w30/wvrn7Zmry2tnrEGv3VyPhtp0lxqV9b3cN3bSv5s7pCsMtvEUhtkhhIB3RvubN/8Aaw+Dvxx8A/BDwCPHHxs8P/EDR9P+J/w6iv0HgBNJ1DVW/wCEy0RVkaeK8MUbeYVdtluFO0qFXORUf4dnvdv5NJWv5NN/MXW/l+v/AAT7yoJxRRSA8T/bQ/ae179mfQfBP/CL+FNH8X+IPHniu08K2NpquuyaLZwyTxTyedLcR2t04VRARhYWJ3dsVk/G79qbx5+zv+zEvibxF8PfDepfEnUtVtdE0bwj4f8AFk15aavd3VykMEa389hA6jYzSyE2p2JE+N+M079vT9jqP9szRPhvod/p3hbW/DvhvxxY+Idd0zxBALm01OxghuEeLymjkSRy0qELIAp2nLDAzxnxi/4JyXHjL4p/CWw+H+taf8Dfhb8JItS1fTLPwNpOmW94uuXQMCulrdWNxYR262898WbyjI0tzkbcFjhFztJP+bT/AApK/wCo5WuuyX3u7/4BqfGj/gohdeEP+CfNr8fPBXw/vPHGn3HhiTxTPZvrVvptvpUEVqbmeO6mYPKJF2SQBYbeZvPCq4iTfLH9F+GNb/4SPw7Y6h5TQ/brdJ/L3btm4A4zgZxnrivh/wAS/sAfGvwB+wf8ZvgT4S1TwV4+0/x9fazb6BrPizXZdFvNL0/Vrdpbl7mOx0uSCSaPUJ7kpFBHDE0Micxldh+vvgFB4stPhPo9v440nw7ofiS1h+z3FpoWszatYqE+VGS4mtbV2LKAxBhXaSQCwG49OjcmvJr/AC+WhO0Yr/Em+9rWfz1O2FfP/wAOf+Up3xk/7JV4D/8ATv4zr6Ar83/+CingH9p/4h/tffGiz/Za8YeDfCPjD/hVfgj7a2tWRe7vITqvjHallctvht5fvjMsLZLIRJDtLNIz7Q/bG/aGj/ZU/ZZ+I3xG+yR6pJ4C8OXuurYtKYxdNDC7pGzAEqrsm3dg45ODivI/E/hj4tfAH9n/AMZfEjxN8cPFHiy60/wfqmqajocGhaLY6fY3S2rzo2kSCyae38qRSsf299QBTHmLI3zV+eP/AAQg/Y6/a2f4e/tHeFfizqekeG9Y8Va3Fa+J7f4p+CtR8WXPiWKazeJ3ivItXs0lt2QshKmZTzhxjFfVXhz/AIJT/tQaV4B1Twfq37Y2l+KvBt54evfDNjourfC6Uw6Ta3MJg3LNDrMVzdyxQkpG1/NdY++wZ/nrGpGbjJQ3a0fTr/X+RV43jfZPX8Lfdr953PjH/gp54w+H3h/xlqll8LF8TeE/hHa6Ld+L9cvfFcVrqE1pfWNpdyTWdrFZFLi4gjmleSORrSJgkflyEu0cPKf8ECn3r+2iy9G/ao8cEH2/0GrWrf8ABLX45a18NPil4Um+O3woXTvi1ptrpmsSJ8JNQE1tFb6fFp6G3P8AwkO1WMUSsS6uN5JAAwo5n/gl58BPjt4Dm+Pg8O3Oi/C+31L41+IdR1pfHXw/1DVG8Z3z/ZvtGuaO0eoaeLPSLoKv2a2cXzReVJm+ut2E6Zct3Yxp83Kubfr/AJn6PCigdKKg0CiiigD5/wD+Clf/ACbt4d/7Kr8OP/U30KvoCvn/AP4KV/8AJu3h3/sqvw4/9TfQq+gKACvn/wD4Jqf8m7eIv+yq/Ef/ANTfXa+gK+f/APgmp/ybt4i/7Kr8R/8A1N9doA+gKKKKACiiigAooooA+f8A/gpX/wAm7eHf+yq/Dj/1N9Cr6AxXz/8A8FK/+TdvDv8A2VX4cf8Aqb6FX0BQAV8/fsb/APJxX7WH/ZVbH/1CPClfQNfP37G//JxX7WH/AGVWx/8AUI8KUAfQNFFFABRRRQAUUUUAfP8A/wAFYv8AlFl+0t/2SrxR/wCmi6r6AxXz/wD8FYv+UWX7S3/ZKvFH/pouq+gKACvn/wD4Kxf8osv2lv8AslXij/00XVfQFfP/APwVi/5RZftLf9kq8Uf+mi6oA+gKKKKADFFFFABiiiigAr5/+I3/AClO+Df/AGSrx5/6d/BlfQFfP/xG/wCUp3wb/wCyVePP/Tv4MoA+gKKKKAPn/wD4KV/8m7eHf+yq/Dj/ANTfQq+gK+f/APgpX/ybt4d/7Kr8OP8A1N9Cr6AoAKKKKACiiigAooooA+f/AIc/8pTvjJ/2SrwH/wCnfxnX0BXz/wDDn/lKd8ZP+yVeA/8A07+M6+gKACiiigD5/wDhz/ylO+Mn/ZKvAf8A6d/GdfQFfP8A8Of+Up3xk/7JV4D/APTv4zr6AoAKKKKACiiigAooooA+f/8Agk7/AMosv2af+yVeF/8A00WtfQFfP/8AwSd/5RZfs0/9kq8L/wDpota+gKACvn/4c/8AKU74yf8AZKvAf/p38Z19AV8//Dn/AJSnfGT/ALJV4D/9O/jOgD6AooooAKKKKACiiigAr5//AOCT3/KLL9mn/slXhf8A9NFrX0BXz/8A8Enf+UWX7NP/AGSrwv8A+mi1oA+gKKKKAPn/AOHP/KU74yf9kq8B/wDp38Z19AV8/wDw5/5SnfGT/slXgP8A9O/jOvoCgAooooAKKKKACiiigD5//wCCT3/KLL9mn/slXhf/ANNFrX0BXz//AMEnf+UWX7NP/ZKvC/8A6aLWvoCgAr5//wCClf8Aybt4d/7Kr8OP/U30KvoCvn//AIKV/wDJu3h3/sqvw4/9TfQqAPoCiiigAooooAKKKKACvn/4c/8AKU74yf8AZKvAf/p38Z19AV8//Dn/AJSnfGT/ALJV4D/9O/jOgD6AooooAKKKKACiiigAooooA+f/APgpX/ybt4d/7Kr8OP8A1N9Cr6Ar5/8A+Clf/Ju3h3/sqvw4/wDU30KvoCgArw3xd/wTO/Zw+IHi7Utc179n34Ja3rmtXUl9qGo6h4F0u5u764kYvJNLK8BeSR2JZmYkkkknJr3KigD5/wD+HTn7LP8A0bT8AP8Aw3mkf/I9H/Dpz9ln/o2n4Af+G80j/wCR6+gKKAPg79q3/gmX+zf4d+PP7M1np/7PvwRsbTXviVeWGpwW/gXS4Y9Rt18H+JbhYZlWACSMTwQShWyA8MbY3IpHuP8Aw6c/ZZ/6Np+AH/hvNI/+R6T9sj/k4r9k/wD7Krff+oR4rr6BoA+f/wDh05+yz/0bT8AP/DeaR/8AI9H/AA6c/ZZ/6Np+AH/hvNI/+R6+gKKAPDfCP/BM79nD4f8Ai7Tdc0H9n34JaJrmi3Ud9p+o6f4F0u2u7G4jYPHNFKkAeORGAZWUgggEHIr3KiigArx34pf8E+/gL8dPHN74o8bfBD4ReMPE2peWLvVtc8HadqF9dCONY08yaaFnbaiIgyThVUDgCvYqKAPn/wD4dOfss/8ARtPwA/8ADeaR/wDI9H/Dpz9ln/o2n4Af+G80j/5Hr6AooA+Dv2rf+CZf7N/h348/szWen/s+/BGxtNe+JV5YanBb+BdLhj1G3Xwf4luFhmVYAJIxPBBKFbIDwxtjcike4/8ADpz9ln/o2n4Af+G80j/5HpP2yP8Ak4r9k/8A7Krff+oR4rr6BoA+f/8Ah05+yz/0bT8AP/DeaR/8j0f8OnP2Wf8Ao2n4Af8AhvNI/wDkevoCigD5/X/glD+y3G+5f2a/gCCDkEfD3SMg/wDgPX0BRRQAVm+KvC+m+OvDOpaJrem2OsaLrFrLZX9hfW6XFrfW8qFJIZY3BV43RmVlYEEEgjBrSooA+f8A/h05+yz/ANG0/AD/AMN5pH/yPR/w6c/ZZ/6Np+AH/hvNI/8AkevoCigD5/8A+HTn7LP/AEbT8AP/AA3mkf8AyPXhvjz/AIJmfs32f/BSH4UaFD+z58EYtE1H4a+NL+705PA2lra3VxBqnhNIJpIhBsaSNLm4VGIJUTygEB2z95V8/wDxG/5SnfBv/slXjz/07+DKAD/h05+yz/0bT8AP/DeaR/8AI9H/AA6c/ZZ/6Np+AH/hvNI/+R6+gKKAPn//AIdOfss/9G0/AD/w3mkf/I9dd8Ff2J/g1+zV4ouNa+HPwj+GPgHWry1axuL/AMN+FrHSrqa3Z0cwtJBEjNGXjRipOMopxkCvUqKACiiigDnfif8ACvwv8a/At94X8aeG9B8XeGdV2C90jWtPi1CxuwkiyJ5kMqsj7XRHG4HDKpHIFeQ/8OnP2Wf+jafgB/4bzSP/AJHr6AooA+f/APh05+yz/wBG0/AD/wAN5pH/AMj0f8OnP2Wf+jafgB/4bzSP/kevoCigD4N/4J9/8EzP2b/GnwI1+81j9nz4I6teQ/Erx9YRz3ngXS55Et7bxhrNvbwhmgJEcUEUUSL0RI0VQFUAe5f8OnP2Wf8Ao2n4Af8AhvNI/wDkej/gmp/ybt4i/wCyq/Ef/wBTfXa+gKAPn/8A4dOfss/9G0/AD/w3mkf/ACPR/wAOnP2Wf+jafgB/4bzSP/kevoCigDz34G/so/C39mFNUX4afDXwD8PBrZiOojwz4etNJF+Yt/led9njTzNnmSbd2du9sYya9CoooAKKKKAPLfjV+xP8Gv2lfFFvrXxG+Efwx8fa1Z2q2Nvf+JPC1jqt1Dbq7uIVknidljDyOwUHGXY4yTXI/wDDpz9ln/o2n4Af+G80j/5Hr6AooA+f/wDh05+yz/0bT8AP/DeaR/8AI9H/AA6c/ZZ/6Np+AH/hvNI/+R6+gKKAPg3/AIJ9/wDBMz9m/wAafAjX7zWP2fPgjq15D8SvH1hHPeeBdLnkS3tvGGs29vCGaAkRxQRRRIvREjRVAVQB7l/w6c/ZZ/6Np+AH/hvNI/8Akej/AIJqf8m7eIv+yq/Ef/1N9dr6AoA+f/8Ah05+yz/0bT8AP/DeaR/8j0f8OnP2Wf8Ao2n4Af8AhvNI/wDkevoCigDN8K+F9N8C+GdN0TRNNsdH0XR7WKysLCxt0t7Wxt4kCRwxRoAqRoiqqqoAAAAGBWlRRQAV5b8av2J/g1+0r4ot9a+I3wj+GPj7WrO1Wxt7/wASeFrHVbqG3V3cQrJPE7LGHkdgoOMuxxkmvUqKAPn/AP4dOfss/wDRtPwA/wDDeaR/8j0f8OnP2Wf+jafgB/4bzSP/AJHr6AooA+f/APh05+yz/wBG0/AD/wAN5pH/AMj14b/wTL/4Jmfs3+Pf+Cb37Puu67+z58Eda1rWvhr4cv8AUNQvvA2l3F1fXEul2zyzSyvAXkkd2ZmZiSxJJJJr7yr5/wD+CTv/ACiy/Zp/7JV4X/8ATRa0AH/Dpz9ln/o2n4Af+G80j/5Ho/4dOfss/wDRtPwA/wDDeaR/8j19AUUAfP8A/wAOnP2Wf+jafgB/4bzSP/kevbvCvhfTfAvhnTdE0TTbHR9F0e1isrCwsbdLe1sbeJAkcMUaAKkaIqqqqAAAABgVpUUAFFFFAHlvxq/Yn+DX7Svii31r4jfCP4Y+Ptas7VbG3v8AxJ4WsdVuobdXdxCsk8TssYeR2Cg4y7HGSa5H/h05+yz/ANG0/AD/AMN5pH/yPX0BRQB8/wD/AA6c/ZZ/6Np+AH/hvNI/+R6P+HTn7LP/AEbT8AP/AA3mkf8AyPX0BRQB8G/8E+/+CZn7N/jT4Ea/eax+z58EdWvIfiV4+sI57zwLpc8iW9t4w1m3t4QzQEiOKCKKJF6IkaKoCqAPcv8Ah05+yz/0bT8AP/DeaR/8j0f8E1P+TdvEX/ZVfiP/AOpvrtfQFAHz/wD8OnP2Wf8Ao2n4Af8AhvNI/wDkej/h05+yz/0bT8AP/DeaR/8AI9fQFFAGb4V8L6b4F8M6bomiabY6Pouj2sVlYWFjbpb2tjbxIEjhijQBUjRFVVVQAAAAMCtKiigArnfif8K/C/xr8C33hfxp4b0Hxd4Z1XYL3SNa0+LULG7CSLInmQyqyPtdEcbgcMqkcgV0VFAHz/8A8OnP2Wf+jafgB/4bzSP/AJHo/wCHTn7LP/RtPwA/8N5pH/yPX0BRQB8//wDDpz9ln/o2n4Af+G80j/5Hrw3/AIKCf8EzP2b/AAX8CNAvNH/Z8+COk3k3xK8A2Ek9n4F0uCR7e58YaNb3EJZYATHLBLLE69HSR1YFWIP3lXz/AP8ABSv/AJN28O/9lV+HH/qb6FQAf8OnP2Wf+jafgB/4bzSP/kej/h05+yz/ANG0/AD/AMN5pH/yPX0BRQB8/wD/AA6c/ZZ/6Np+AH/hvNI/+R6774G/so/C39mFNUX4afDXwD8PBrZiOojwz4etNJF+Yt/led9njTzNnmSbd2du9sYya9CooAKKKKACiiigAooooAKKKKAPn/8A4KV/8m7eHf8Asqvw4/8AU30KvoCvn/8A4KV/8m7eHf8Asqvw4/8AU30KvoCgAooooAKKKKAPwU/4OLNG/a2+F3/BTn4NW/wj+JHjRvDfxS1eJvBFjDMDb+GvEP2aTTblEbYTGjWt7JJuY4CXNxgBY+P3B+C3gbUPhl8I/DPh3VvEGpeLNW0XTLezvtb1A5utXuEjVZLmTHAaRwzEDgbsDgVpa/4H0bxZq2i32paXY6heeG71tQ0qe4gWSTTrhoJbdpYiRlHMM80eRztlYdDWxmgAooooAKKKKACiiigAoozRQB+Cn/BxZo37W3wu/wCCnPwat/hH8SPGjeG/ilq8TeCLGGYG38NeIfs0mm3KI2wmNGtb2STcxwEubjACx8fuD8FvA2ofDL4R+GfDureINS8WatoumW9nfa3qBzdavcJGqyXMmOA0jhmIHA3YHArS8QeB9G8V6tot9qWl2OoXnhu9bUNKnuIFkk064aCW3aWIkZRzDPNHkc7ZWHQ1sZoAKKKKACiiigAooooAKKKKACv58/23Phv+2Vp//BxF4W+E/hX4zfEKz8P+NvtN94W1xJUdvD/he9mgudVgVihH7h9PRArklzb2uTmQZ/oMrHvPBGjX/jfT/EVxpdhNr+l2dxYWeovApuba3uHheeJHxuVJGt4CwBwTEmegoA0LG1+wWUMIaaRYUVA8rl3bAxlmPJPqT1qxRRQAUUUUAFFFFABRRRQAV4n/AMFDfhb8QvjL+xt480X4T+LNV8E/Ek6a114b1SwlEUgvYSJY4GLAr5c23yWJBwJSw5UV7ZRmgD8Vf+DS8/tDfGnTfiT8Qvip488Y3fgPTNWv9K0nw9qLeXDd63dXj3+q3rptVt6zTN/smS5m4Bj4/aqsbwd4I0f4e6VLY6Fpdjo9nNeXOoSQWcCwxvcXM73FxKQoALyTSySMerM7E8mtmgAooooAKKKKACiiigAooooAK8T/AOChvwt+IXxl/Y28eaL8J/Fmq+CfiSdNa68N6pYSiKQXsJEscDFgV8ubb5LEg4EpYcqK9sooA/FX/g0vP7Q3xp034k/EL4qePPGN34D0zVr/AErSfD2ot5cN3rd1ePf6reum1W3rNM3+yZLmbgGPj9qqx/B3gjR/h7pUtjoWl2OkWc15c6hJBZwLDG9xczvcXEpCgAvJNLJIx6szsTya2M0AFFFFABRRRQAUUUUAFFFFAHxn/wAF2/CvxkvP+CePizxR8CfGviLwd4++Hw/4SNV0iQB9ZsoVb7XaspDbj5RaVABuLwKo++a8B/4NSfC3xk1P/gnza+OPip408Ra1oOtJb6N4C0K+kH2fRdE09DbpJGoAI8x1KLuz+7t42Bw5z+o0kazIysqsrDDKRkEehrL8F+DNI+G3g/S/D/h/TbLRdD0S0isNPsLOFYbeyt4lCRxRouAqKoAAHAAoA2KKKKACiiigAooooAKKKKACvE/+Chvwt+IXxl/Y28eaL8J/Fmq+CfiSdNa68N6pYSiKQXsJEscDFgV8ubb5LEg4EpYcqK9sooA/FX/g0vP7Q3xp034k/EL4qePPGN34D0zVr/StJ8Pai3lw3et3V49/qt66bVbes0zf7JkuZuAY+P2qrH8HeCNH+HulS2OhaXY6RZzXlzqEkFnAsMb3FzO9xcSkKAC8k0skjHqzOxPJrYoAKKKKACiiigAooooAKKKKACvxV/4O0D+0N8FtN+G3xC+FfjzxjaeA9T1aw0rVvD2nN5kNprdreJf6Veom1m3tNCv+yJLaHgmTn9qqx/GPgjR/iFpUVjrul2Or2cN5bahHBeQLNGlxbTpcW8oDAgPHNFHIp6qyKRyKAPK/+CeXwt+IXwa/Y28B6L8WPFmq+NviSNNW68SapfyiWQ3sxMskClQF8uHd5KkAZEQY8sa9sozRmgAooooAKKKKACiiigAooooAKKKKAPzf/wCC6H/BWz4S/sbQ+Ffhn46/4Syx8RXnijwb41tpbfSGnsrrTtO8VadfXZSYHBkSGxn/AHfXOwdHUn7Q/Y+/ax8M/tv/ALPXh/4oeC4dbi8K+KFlk019VsTZ3FxHHK0Rk8skkIzI20n7wwRwQT81/wDBcX/gjvpX/BXf4MeCdHW/g0HxR4O8SW13bas65ePTJ5Y49SgHB5MAEqDGDLbRKSoZjX2N8M/h1ovwf+HWg+E/DdhDpfh/wzp8GlabZwjEdrbQRrHFGvsqKB+FAG9RRRQA09a8y+PX7XHgf9mvUtD0/wAUXmty6x4k846ZpOg+HNS8RapdxwhTNMtnp9vPP5Me9A8pQRqZIwWBdQfTT1r5Q/4KKaX4fg8V+DvEEzfHTwl448O2monw14z+G/hG68TyWhmWNLiwurSC0vY5IptsL7bu2EWYFaOaORARnJ2a/plRjc7v4uf8FHvgz8D30r/hIfFkwt9W0mHxAt5puiahqtlYaZM4SG/vbi0glhsrV2yFnunijPlyENiNyvuUUiyoGUhlYZBByCK/JX9sPwh8ZvjFBZ6n8QPA3jDQ/iHrHwi0W3GmeEfC+p69oHxD1sXk13c+HddNq0tvZ6fHKsCbpJbY7b+8H2x7fzo2/Vzw7JdSaBZNeW8VneNAhnt433pA+BuRW4yAcgHHOK25Vy+d2u6tfSzM29VbZr57L/P+tTSoooqSgooooAKKKKAGkAVj+PPHOj/DDwXqniHxBqVlouhaJay32oX13IIrezgjUvJLI54VVUEkn0rYyDXDftI6NofiP4BeMtP8SeF9U8ZeHdQ0i5tdU0TTYjNd6naSRsk0MSB0Z3MbNhUYOeiZbaDnUuotq1/PYqCTkubbqcNoP/BQz4beKfAN14j0+L4lXdpYy26TWMXwy8StrHl3Cu0Fyum/YPtrWsnlyBblYTCWjdd+5SB0f7O37XPgf9qk+JY/B0/iR7nwffR6brNprXhfVPD93YXLwpOkbwahbQSZMUkb8KflkU/xDPzb+yr8avHXwX8JfFi4sbf43fFL4P8Aw98MWd14RHi/wVe6X4z1DUY47gTaRbQy2drd30KxxWWy5nt2kaS5kDXE5RzH7v8AsEfAfVPgD+zfplr4maObx34muLjxN4uuEORNrF9Ibi5VTkkxxM4gjyTiKCIZ4rZWu97WVvX+k/TQz1Vk976/d/wV+PY9sHSiiipKCiiigAooooAKKKKAOP8AjV8bfC/7PHw41Dxb4w1ZdH0DTNnnT+TJcSO8jrHFDFDErSzTSSOiRxRI0kjuqqrMQDyKftu/DcfB688cXGqa1p2j2N+mlTWeoeG9TsdbW+cp5VmNKmt0v2uZRJEYoRAZJVljZFZXUmv+3d4T8K+Of2a9a0nxtoPjjXvDd5Na/aG8H2t1c63pMiXEckF/bR2mboyW8yRSg26SSAoCI2AYV8T/ABA0L4nfGzwP4L17x43xr8Y/Cn4cfFs3Vpq8PhvU/DfxB1fQptCubT7bLYaXb2t+ht9RvWiDW1rbzSW8RkMZUmV4i7tra1vzS+/X+rMrlVk/X70m0vmfot8K/inpnxm8FWviDR7fxFZ2F2zqkWuaBf6DfKUYqd9pfQw3CDIOC8YDDBGQQa6ZeBXzz/wTbs/GFj8Ar/8A4ShvGH9lzeJdVm8JR+LZLuTX4NBa6c2S3rXZN2ZNmSouv36xtEkv7xWr6G5Bqn3XqZxb692v+COoooplBRRRQAUUUUANJz3rgvj7+0j4P/Zm8NWOqeMNQvbSLVr6PTNOtdP0q71bUNUunDMsFtZ2cUtzcSbEdysUbFUjdzhVYjve1fPX/BQ7w14V8ReAvCs3imy+LNvJouvRapoviT4eaLdaxrHhTUYopBHci2tYLmWSN0eWFle1ngZZWWZNrCs5NqzXdX9Lr8So679n95e8Xf8ABRz4VeDIPCPnX3jPUrrxxa3t5pOnaN4D17WNTaOyljhvPPs7SyluLV4JZUjkS4jjdHJRlDAgey+GfEEHizw5YapapexW2pW8dzEl5ZzWdwqOoYCSCZUlifB5SRVdTkMAQRX583s1v8UfhR4I1z9obwn+0dL8QrGy1208JeLvAGjeJ9J1i50uS9Edv/aEGgMpsb65t7exuJILyKKBXONsZSWGP7E/YlsPiFpf7I/w3t/ixI03xJh8P2aeI3eSGSRr0RL5m9of3TSbvvGMlC24qSMGtY6xb7P82/yS1IfxJev4W28ux6sOlFFFIYUUUUAFFFFABRRRQA09a8y+PX7XHgf9mvUtD0/xRe63LrHiTzjpmk6D4c1LxFql3HCFM0y2en288/kx70DylBGpkjBYF1B9NPWvlD/goppfh+DxX4O8QTN8dPCXjjw7aaifDXjP4b+EbrxPJaGZY0uLC6tILS9jkim2wvtu7YRZgVo5o5EBGcpWt/TKjG56z8WP21vhd8DvCngjXPE3jCxstL+JGp2WkeGJ4Yprz+2bi8x9nESwo7bG3KTIQI1DAsygivVFOT0xX5VftYfBj9rT4xfDnwh488YfC/4c+JPEmPA0Vrptj4jv4tQ8MXC6xp17q2bOHTLpFWa5hiE8y3ciw29kjhX2MH/UvR5buXSbV76G3tr5okNxDBMZoopMDcqSFULKDkBiikjnaOlbcqUW+vM18klZ/O7M+q9E/mXqKKKkoKKKKACiiigAoooNAHkOr/tu/DbRfjjL8O5NZ1SbxLaXNtZXr23h/UbrStKubkA29td6lHA1ja3EoePZDPOkj+dCApMse40D9t74beI/jwvw2g1nVI/FVxLd29n9p8P6ja6Zqk1p/wAfUFpqMsC2V3ND8wkigmd0McoZQY32/N/x2uta+HH7Y97q3wYsPjNovxI8VeJ9FtvFOgXXhC6u/APi+xQwwT6pNqTW72tnLDpxcq9vewTO9nDHLbzMEQp4yvPEHxd/4KP/AA11bRLX4yeJP+EP8S6rFqeh+MvBMml+F/BVl9huLR9U0vU47S2hvLiVxEkQe71BjDqE5WOHa7RlKzjFvrdfgvwu/wDO1hVNOa3ZP8/6/wAz7vooX7tFAwooooAKKKKACiiigBp615l8ev2uPA/7NmpaHp/ii91uTWPEnnHTNJ0Hw5qXiLVLuOEKZpls9Pt55/Jj3oHlKCNTJGCwLqD6aetfKH/BRTS/D8Hivwd4gmb46eEvHHh201E+GvGfw38I3XieS0MyxpcWF1aQWl7HJFNthfbd2wizArRzRyICM5OzRUY3O/8Ai3/wUS+EXwOs7G717xJqUmnX2kQ+IG1DSfDup61Y6dpkxYRX17cWdvNFZWz7JNs100SMIZSGIjcr7VbXsd9bRzQyLLDKodHQhldTyCCOCCK+Af2kv2kfiB8Q/wBnTwF8Hfil4E+IXh/V/id4Ogn+KWv+FPh/rviKw0e2njMd5pdkdNtbxf7Qm+eMiR/Lt43eTfKwijk+6vANxp934F0eTR7a7sdLksoWs7e6s5rOaCEoNiSQzKssTBcApIqupBDAEEVs4pX9WrrXYy5rtdNE/wCv67G5RQKKksKKKKACiiigAooooAaeteZfHr9rjwP+zXqWh6f4ovdbl1jxJ5x0zSdB8Oal4i1S7jhCmaZbPT7eefyY96B5SgjUyRgsC6g+mnrXyh/wUV0vw/B4r8H+IJm+OnhLxx4dtNRPhrxn8N/CN14nktDMsaXFhdWkFpexyRTbYX23dsIswK0c0ciAjOTs1/TKjG56jf8A7dnwls/id4L8Gr400+98SfEBI5NEtNPimvhKsttLdQNNJCjx2omggneE3DRiYQTeXv8ALfHrvWvz0+Pvx18aTN+yBefEvwL8Q2+IHhnWbbxV48g8JfDzXtc03RTNoOqWsmJ7G1uYS63M8aNDHNI6b88p85/QSynFzbRyr5m2RQwDoUYAjPKkAg+xGRW0opXt3a/Ii+sfOKfzu1b7kn8y1RRRUjCiiigAooooAKKKKACiiigD5V/4Kb6nDdXfwT8MeI7iS1+GPjjx/FonjQtc+Ra3tq+nXz2lhdMP+Xa61COygdCQs3mCF9yTMjeT/ts/szfCTwFa/D74TfC3wT8M4tV8V/EG1vZvhrNYww+C9fkh0q+nePVrOP8Ad2qNbQvNHNHbzO1xa2sht7hYSE+5vHfgHQvil4P1Dw/4m0XSvEOgatA1tf6ZqdpHd2d7E33o5YpAUdT3DAiuCtP2EfgfbfCS4+H8fwb+FKeA7m+Gpy+G18JWA0eW7ACi4Np5XkmXCgbyu7AHPFZ62+af3NPz2t6dPMrm1v8A3XH71JX6d7dNDzf/AIJAyafZfsbR6LY27afdeGPE+u6RqmmQpGmmaJfxalP9osdNEckiDToJGMVuA2REiBljcNGn1DWL4C8AeH/hP4M07w54V0PR/Dfh/SYhBY6XpVnHZ2VlGOQkUMYVEXk8KAOa2q3nLmd/JfNpWb62vva7ttd7vOKtfzbf3tu3Tba9lfsthshwF+vpTiOKa5wPx9KdWZQYzRRRTAKKKKACiiigAooooAKKKKADFFFFABRRRQAUUUUAFFFFABRRRQAUYxRRQAUUUUAFFFFABRRRQAUUUUAFFFFABiiiigAooooAKKKKACiiigAooooAKKKKACiiigAooooAKKKKACiiigAooooAMUYoooAKKKKACiiigAooooAKKKKACiiigAxRRRQAUUUUAFFFFABRRmjNABRRRQAUUUUAGKKM0UAFFFGaACiiigAoozRQAUUUUAFFFFABRRRQAUUUUAFFFFABRRRQAUUUUAFFFFABRRRQAUUUUAFFFFABRRRQAUUUUAFFFFABRRRQAUUUUAFFFFABRRRQAUUUUAFFFFABRRRQAUUUUAFFFFABRRRQAUUUUAFFFFABRRRQAUUUUAFFFFABRRRQAUUUUAFFFFABRRRQAUUUUAFFFFABRRRQAUUUUAFFFFABRRRQAUUUUAN61R1nXLPw5pdxf6heW1jY2cbTT3FxIsUUCKMlmZiAoA6knFXvu14N+2tp+s6t4dht9FjurjUrWL7bZW9qA102yeL7TLbq3Buo4CxiIy4LuUw4U1vhcOq1aNNuyb37efoY4is6VJ1Er26d/Q9Z8I/FHw34+0u4vtC8QaJrVlZsVnuLG+iuIoSBuIZkYhTjnk9K50/tW/C//oo3gX/wfWv/AMcrj/BOg6Hb+JrDW9D/AOExa9kuoNNsm8RJdRzPDiWS5hQ3ai7eMKzSnzSU3xxbD8m0eO/syxa1rH7Qvxc0eHSbHUPCuteObu119pXLyC3aC8whi8sr5bOEBfzAQSBtO4kenQy2lUjVnd2ik7Oy6pNfjp3tY8ypmFSLgna8m1pd9G/0PrdfiR4fk8WxaCNd0dtcuIftMWnfbI/tckWM+YsW7eVwCdwGOK3Vyf8AGvj79pzxRceBf2wPDeteHZLAy6L8PtSvrI3EbXFtIsKyuFIV0LBlXGQ/cHnGD0vwq/ax8aaprHwnk8RQ+GZtP+K1ndtHFp1pPDNpc0MayKzO8ziVGBOVCoVyPmbblieS1HShVo6qSvZ7397T7ot/0hxzaKqypVVrF2utrWi7/fJI+nAcmgcmvlf4afta/EbXfAHi7xfqtp4Mm0HwDqepWepxWkFzDeahHbQlkMIaSRIm8zZncXBV2+6U+ezo/wC27rvhE2r+LLLSdQh1jwQ/jSz/ALKtpbU2uxGdrSUySS78rtAlATkH5ORjGWS4lNwSTa7Pyv8AlqbRzag7Xur915pfmz6e6ilHWvmrUv2gvihov7MOq/Eadvh/PZtodtrOnRwWt2XidyDJbzKZsOArKBKrr8ytmPB4PCP7VHjrxP8AFTxF4dtdL0HUp7XwTB4j0uCKGWGSa7kjjIhd2mZSm9jjAU4IGeCTMcprtSkrWjdPXta/3XQf2pR93f3rW07n0qOT9KAMGvHv2Qvjxqfxy8I6nPrlxpi61pdwkF7p0Gmz6bdaVIYwXhnhmkkbIfftdWwyjorBlGR8NP2gfGPxf8ceJL3SY/CsXg/wl4gutEv7OdJzqkkUEfzTxyKxTc0hG2JohlQRvzzWLy+tGUoNfDv89vv6GscdSlCM4/adkut1e/3WPeC2Gozg18w/DD9tPxD4sv8A4eapqFjpC+H/AIoXeoWWn2ttbSi80hoHKxPLKZSs4YKdwWOLbnIJA55Pwr+3b8R9Ss9BurjT/Bc8ereM5fCBiit7mDzGCjbPuMr+WAxGVw+4Z5XrXYshxbdrLTz7Np/dys5pZ1hklK718vxPspvm4oVcGvIP2RfjrrXxv0bxcNeh0tb7wv4ku9C82whkhhuVh2Yk8t3kKE7jkbzXr+7BrzMRh50ajpVN0ehh8RGtD2kNv8tB1FFFZGwUUUUAFFFFABRRRQAUUUUAFFFFABRRRQAUUUUAFFFFABRRRQAUUUUAFFFFABRRRQAUUUUAFFFFABRRRQAUUUUAFFFFABRRRQAUUUUAFFFFABRRRQAUUUUAFFFFABRRRQAUUUUAFFFFABRRRQAUUUUAFFFFABRRRQAUUUUAFFFFABRRRQAUUUUAFFFFABRRRQAUUUUAFFFFABRRRQAdRWL4w8D6X480n7Fqtqt1CriaJgzRy28gztlikUh4pFydroysp5BFbVNP1oi2ndbiaTVmcn4R+DWgeCprieyh1CW8uYTbve32p3OoXiRHBMSTzyPKiZAbarBd3zYzzXJ6T+xV8P8AQLzUp7C18TWNxrUhl1F7fxZq0TX7nOWlK3IMh+ZuWz94+tesE80nWto4qsr2k1ffV622v3MZYak7JxWm2mx438Zf2QvD/jDw3c3Oi6Wq+KLTQJfD+jzXGsXlvbWkDxNCEZUZ1KBXJIMbbiBn1FT9lz9kix+Evg7w7J4hsbe58W+H7J7CK6h1i8vraBHxve3SbaluzgDd5Uanr8xya9wxk0YxW/8AaWJ9j7DnfL6vzVvTV6eZj/Z9D2iq8qv6Ly/yX3HE/DL9n3wn8I9G1bTdD02WPT9cme4v4Lu+uL5bmRxtdmE7vyw4b+93zUHgP9mzwX8OZbj+zNHLefYLpX+nXlxqHl2Yzi2j+0O/lw8nMaYU8ZHArvduDRjHH5VhLFVm25Tbvvq9fXub/V6SSSitNtFp6Hm+gfsn+A/DHg2/8O2uiTNompWj2Mlpc6jdXUcMDnc8cPmyN5Cs2GPlbcsqk8qpFPw7+xp8O/C+p3V1a6Lfedfab/Y87T6ze3Hm2mABCwkmYFVCgL/dAAGMCvVAc/8A66N2R/8AXrRY7EK9pvXfV6+uupP1Ohp7i020WnoeZp+yJ8PxtaTRrq6uP7Xg11rq51W8uLqW8gTZDI8zymRwi5ARmKDJ+Xk1o2n7OPg6w+IN94ot9Jlt9W1OeO6vPKvrhLW7njH7uWS2EnkPIp+YM0ZIb5gd3Nd329qO1S8VWa1m+27200/BfcgjhaK2gvu/ruzgfC37M3grwX4oTV9N0d4byFrlrZGvriW3sGuG3TtbQPIYrcuephVDgkdCRXP2f7DXw00+Cyih0XVI49N1I6xbL/b+oERXh25nH7/7/wAo5Pv6mvXup6UHJprHYiLvGbv6vz8/N/eyZYPDyVpQX3Lrucb8JvgN4Z+Cbap/wjdnd2f9tXJvb0Tajc3XnznO6XE0j4ds/MwwWwM5wMdk360feoIyPWsJVJzlzVG2+71ZvTpxguWCsh1FFFSWFFFFABRRRQAUUUUAFFFFABRRRQAUUUUAFFFFABRRRQAUUUUAFFFFABRRRQAUUUUAFFFFABRRRQAUUUUAFFFFABRRRQAUUUUAFFFFABRRRQAUUUUAFFFFABRRRQAUUUUAFFFFABRRRQAUUUUAFFFFABRRRQAUUUUAFFFFABRRRQAUUUUAFFFFABRRRQAUUUUAFFFFABRRRQAUUUUAFFFFABRRRQAUUUUAFFFFABRRRQAUUUUAFFFFABRRRQAUUUUAFFFFABRRRQAUUUUAFFFFABRRRQAUUUUAFFFFABRRRQAUUUUAFFFFABRRRQAUUUUAFFFFABRRRQAUUUUAFFFFABRRRQAUUUUAFFFFABRRRQAUUUUAFFFFABRRRQAUUUUAFFFFABRRRQAUUUUAFFFFABRRRQAUUUUAFFFFABRRRQAUUUUAFFFFABRRRQAUUUUAFFFFABRRRQAUUUUAFFFFABRRRQAUUUUAFFFFABRRRQAUUUUAFFFFABRRRQAUUUUAFFFFAH//2Q==;clipPath=inset(0% 0% 25.29% 0%);" vertex="1" parent="1">
                    <mxGeometry x="150" y="90" width="765" height="161.925" as="geometry"/>
                </mxCell>
                <mxCell id="13" style="edgeStyle=orthogonalEdgeStyle;html=1;exitX=0;exitY=0.5;exitDx=0;exitDy=0;elbow=vertical;strokeColor=default;rounded=0;" edge="1" parent="1" source="5">
                    <mxGeometry relative="1" as="geometry">
                        <mxPoint x="80" y="450" as="targetPoint"/>
                        <Array as="points">
                            <mxPoint x="80" y="375"/>
                            <mxPoint x="80" y="450"/>
                        </Array>
                    </mxGeometry>
                </mxCell>
                <mxCell id="15" style="edgeStyle=orthogonalEdgeStyle;rounded=0;html=1;exitX=0.5;exitY=1;exitDx=0;exitDy=0;strokeColor=default;elbow=vertical;" edge="1" parent="1" source="5">
                    <mxGeometry relative="1" as="geometry">
                        <mxPoint x="160" y="450" as="targetPoint"/>
                    </mxGeometry>
                </mxCell>
                <mxCell id="29" style="edgeStyle=orthogonalEdgeStyle;rounded=0;html=1;exitX=0.75;exitY=0;exitDx=0;exitDy=0;strokeColor=default;elbow=vertical;endArrow=none;endFill=0;startArrow=classic;startFill=1;" edge="1" parent="1" source="5">
                    <mxGeometry relative="1" as="geometry">
                        <mxPoint x="180" y="310" as="targetPoint"/>
                    </mxGeometry>
                </mxCell>
                <mxCell id="30" style="edgeStyle=orthogonalEdgeStyle;rounded=0;html=1;exitX=0.25;exitY=0;exitDx=0;exitDy=0;strokeColor=default;elbow=vertical;endArrow=none;endFill=0;startArrow=classic;startFill=1;" edge="1" parent="1" source="5">
                    <mxGeometry relative="1" as="geometry">
                        <mxPoint x="140" y="310" as="targetPoint"/>
                        <Array as="points">
                            <mxPoint x="140" y="340"/>
                            <mxPoint x="140" y="340"/>
                        </Array>
                    </mxGeometry>
                </mxCell>
                <mxCell id="55" style="edgeStyle=orthogonalEdgeStyle;rounded=0;html=1;exitX=0.25;exitY=0;exitDx=0;exitDy=0;strokeColor=#ae4132;startArrow=classic;startFill=1;endArrow=none;endFill=0;elbow=vertical;fillColor=#fad9d5;" edge="1" parent="1" source="5">
                    <mxGeometry relative="1" as="geometry">
                        <mxPoint x="160" y="270" as="targetPoint"/>
                        <Array as="points">
                            <mxPoint x="140" y="330"/>
                            <mxPoint x="160" y="330"/>
                        </Array>
                    </mxGeometry>
                </mxCell>
                <mxCell id="56" style="edgeStyle=orthogonalEdgeStyle;rounded=0;html=1;exitX=0.75;exitY=0;exitDx=0;exitDy=0;strokeColor=#ae4132;startArrow=classic;startFill=1;endArrow=none;endFill=0;elbow=vertical;fillColor=#fad9d5;" edge="1" parent="1" source="5">
                    <mxGeometry relative="1" as="geometry">
                        <mxPoint x="200" y="270" as="targetPoint"/>
                        <Array as="points">
                            <mxPoint x="180" y="330"/>
                            <mxPoint x="200" y="330"/>
                        </Array>
                    </mxGeometry>
                </mxCell>
                <mxCell id="59" style="edgeStyle=orthogonalEdgeStyle;rounded=0;html=1;exitX=0;exitY=0.5;exitDx=0;exitDy=0;strokeColor=#ae4132;startArrow=none;startFill=0;endArrow=classic;endFill=1;elbow=vertical;fillColor=#fad9d5;" edge="1" parent="1" source="5">
                    <mxGeometry relative="1" as="geometry">
                        <mxPoint x="110" y="500" as="targetPoint"/>
                        <Array as="points">
                            <mxPoint x="110" y="375"/>
                            <mxPoint x="110" y="450"/>
                        </Array>
                    </mxGeometry>
                </mxCell>
                <mxCell id="5" value="FA" style="rounded=0;whiteSpace=wrap;html=1;" vertex="1" parent="1">
                    <mxGeometry x="120" y="350" width="80" height="50" as="geometry"/>
                </mxCell>
                <mxCell id="14" style="edgeStyle=orthogonalEdgeStyle;rounded=0;html=1;exitX=0.5;exitY=1;exitDx=0;exitDy=0;strokeColor=default;elbow=vertical;" edge="1" parent="1" source="6">
                    <mxGeometry relative="1" as="geometry">
                        <mxPoint x="280" y="450" as="targetPoint"/>
                    </mxGeometry>
                </mxCell>
                <mxCell id="22" style="edgeStyle=orthogonalEdgeStyle;rounded=0;html=1;exitX=0;exitY=0.5;exitDx=0;exitDy=0;entryX=1;entryY=0.5;entryDx=0;entryDy=0;strokeColor=default;elbow=vertical;" edge="1" parent="1" source="6" target="5">
                    <mxGeometry relative="1" as="geometry"/>
                </mxCell>
                <mxCell id="31" style="edgeStyle=orthogonalEdgeStyle;rounded=0;html=1;exitX=0.25;exitY=0;exitDx=0;exitDy=0;strokeColor=default;elbow=vertical;endArrow=none;endFill=0;startArrow=classic;startFill=1;" edge="1" parent="1" source="6">
                    <mxGeometry relative="1" as="geometry">
                        <mxPoint x="260" y="310" as="targetPoint"/>
                    </mxGeometry>
                </mxCell>
                <mxCell id="32" style="edgeStyle=orthogonalEdgeStyle;rounded=0;html=1;exitX=0.75;exitY=0;exitDx=0;exitDy=0;strokeColor=default;elbow=vertical;endArrow=none;endFill=0;startArrow=classic;startFill=1;" edge="1" parent="1" source="6">
                    <mxGeometry relative="1" as="geometry">
                        <mxPoint x="300" y="310" as="targetPoint"/>
                    </mxGeometry>
                </mxCell>
                <mxCell id="47" style="edgeStyle=orthogonalEdgeStyle;rounded=0;html=1;exitX=0;exitY=0.5;exitDx=0;exitDy=0;strokeColor=#ae4132;startArrow=none;startFill=0;endArrow=classic;endFill=1;elbow=vertical;fillColor=#fad9d5;" edge="1" parent="1" source="6">
                    <mxGeometry relative="1" as="geometry">
                        <mxPoint x="220" y="500" as="targetPoint"/>
                    </mxGeometry>
                </mxCell>
                <mxCell id="57" style="edgeStyle=orthogonalEdgeStyle;rounded=0;html=1;exitX=0.25;exitY=0;exitDx=0;exitDy=0;strokeColor=#ae4132;startArrow=classic;startFill=1;endArrow=none;endFill=0;elbow=vertical;fillColor=#fad9d5;" edge="1" parent="1" source="6">
                    <mxGeometry relative="1" as="geometry">
                        <mxPoint x="280" y="270" as="targetPoint"/>
                        <Array as="points">
                            <mxPoint x="260" y="330"/>
                            <mxPoint x="280" y="330"/>
                        </Array>
                    </mxGeometry>
                </mxCell>
                <mxCell id="58" style="edgeStyle=orthogonalEdgeStyle;rounded=0;html=1;exitX=0.75;exitY=0;exitDx=0;exitDy=0;strokeColor=#ae4132;startArrow=classic;startFill=1;endArrow=none;endFill=0;elbow=vertical;fillColor=#fad9d5;" edge="1" parent="1" source="6">
                    <mxGeometry relative="1" as="geometry">
                        <mxPoint x="320" y="270" as="targetPoint"/>
                        <Array as="points">
                            <mxPoint x="300" y="330"/>
                            <mxPoint x="320" y="330"/>
                        </Array>
                    </mxGeometry>
                </mxCell>
                <mxCell id="6" value="FA" style="rounded=0;whiteSpace=wrap;html=1;" vertex="1" parent="1">
                    <mxGeometry x="240" y="350" width="80" height="50" as="geometry"/>
                </mxCell>
                <mxCell id="16" style="edgeStyle=orthogonalEdgeStyle;rounded=0;html=1;exitX=0.5;exitY=1;exitDx=0;exitDy=0;strokeColor=default;elbow=vertical;" edge="1" parent="1" source="7">
                    <mxGeometry relative="1" as="geometry">
                        <mxPoint x="400" y="450" as="targetPoint"/>
                    </mxGeometry>
                </mxCell>
                <mxCell id="23" style="edgeStyle=orthogonalEdgeStyle;rounded=0;html=1;exitX=0;exitY=0.5;exitDx=0;exitDy=0;entryX=1;entryY=0.5;entryDx=0;entryDy=0;strokeColor=default;elbow=vertical;" edge="1" parent="1" source="7" target="6">
                    <mxGeometry relative="1" as="geometry"/>
                </mxCell>
                <mxCell id="33" style="edgeStyle=orthogonalEdgeStyle;rounded=0;html=1;exitX=0.25;exitY=0;exitDx=0;exitDy=0;strokeColor=default;elbow=vertical;endArrow=none;endFill=0;startArrow=classic;startFill=1;" edge="1" parent="1" source="7">
                    <mxGeometry relative="1" as="geometry">
                        <mxPoint x="380" y="310" as="targetPoint"/>
                    </mxGeometry>
                </mxCell>
                <mxCell id="34" style="edgeStyle=orthogonalEdgeStyle;rounded=0;html=1;exitX=0.75;exitY=0;exitDx=0;exitDy=0;strokeColor=default;elbow=vertical;endArrow=none;endFill=0;startArrow=classic;startFill=1;" edge="1" parent="1" source="7">
                    <mxGeometry relative="1" as="geometry">
                        <mxPoint x="420" y="310" as="targetPoint"/>
                    </mxGeometry>
                </mxCell>
                <mxCell id="48" style="edgeStyle=orthogonalEdgeStyle;rounded=0;html=1;exitX=0;exitY=0.5;exitDx=0;exitDy=0;strokeColor=#ae4132;startArrow=none;startFill=0;endArrow=classic;endFill=1;elbow=vertical;fillColor=#fad9d5;" edge="1" parent="1" source="7">
                    <mxGeometry relative="1" as="geometry">
                        <mxPoint x="340" y="500" as="targetPoint"/>
                    </mxGeometry>
                </mxCell>
                <mxCell id="60" style="edgeStyle=orthogonalEdgeStyle;rounded=0;html=1;exitX=0.25;exitY=0;exitDx=0;exitDy=0;strokeColor=#ae4132;startArrow=classic;startFill=1;endArrow=none;endFill=0;elbow=vertical;fillColor=#fad9d5;" edge="1" parent="1" source="7">
                    <mxGeometry relative="1" as="geometry">
                        <mxPoint x="400" y="269.9999999999999" as="targetPoint"/>
                        <Array as="points">
                            <mxPoint x="380" y="330"/>
                            <mxPoint x="400" y="330"/>
                        </Array>
                    </mxGeometry>
                </mxCell>
                <mxCell id="61" style="edgeStyle=orthogonalEdgeStyle;rounded=0;html=1;exitX=0.75;exitY=0;exitDx=0;exitDy=0;strokeColor=#ae4132;startArrow=classic;startFill=1;endArrow=none;endFill=0;elbow=vertical;fillColor=#fad9d5;" edge="1" parent="1" source="7">
                    <mxGeometry relative="1" as="geometry">
                        <mxPoint x="440" y="270" as="targetPoint"/>
                        <Array as="points">
                            <mxPoint x="420" y="330"/>
                            <mxPoint x="440" y="330"/>
                        </Array>
                    </mxGeometry>
                </mxCell>
                <mxCell id="7" value="FA" style="rounded=0;whiteSpace=wrap;html=1;" vertex="1" parent="1">
                    <mxGeometry x="360" y="350" width="80" height="50" as="geometry"/>
                </mxCell>
                <mxCell id="17" style="edgeStyle=orthogonalEdgeStyle;rounded=0;html=1;exitX=0.5;exitY=1;exitDx=0;exitDy=0;strokeColor=default;elbow=vertical;" edge="1" parent="1" source="8">
                    <mxGeometry relative="1" as="geometry">
                        <mxPoint x="520" y="450" as="targetPoint"/>
                    </mxGeometry>
                </mxCell>
                <mxCell id="24" style="edgeStyle=orthogonalEdgeStyle;rounded=0;html=1;exitX=0;exitY=0.5;exitDx=0;exitDy=0;entryX=1;entryY=0.5;entryDx=0;entryDy=0;strokeColor=default;elbow=vertical;" edge="1" parent="1" source="8" target="7">
                    <mxGeometry relative="1" as="geometry"/>
                </mxCell>
                <mxCell id="35" style="edgeStyle=orthogonalEdgeStyle;rounded=0;html=1;exitX=0.25;exitY=0;exitDx=0;exitDy=0;strokeColor=default;elbow=vertical;endArrow=none;endFill=0;startArrow=classic;startFill=1;" edge="1" parent="1" source="8">
                    <mxGeometry relative="1" as="geometry">
                        <mxPoint x="500" y="310" as="targetPoint"/>
                    </mxGeometry>
                </mxCell>
                <mxCell id="36" style="edgeStyle=orthogonalEdgeStyle;rounded=0;html=1;exitX=0.75;exitY=0;exitDx=0;exitDy=0;strokeColor=default;elbow=vertical;endArrow=none;endFill=0;startArrow=classic;startFill=1;" edge="1" parent="1" source="8">
                    <mxGeometry relative="1" as="geometry">
                        <mxPoint x="540" y="310" as="targetPoint"/>
                    </mxGeometry>
                </mxCell>
                <mxCell id="49" style="edgeStyle=orthogonalEdgeStyle;rounded=0;html=1;exitX=0;exitY=0.5;exitDx=0;exitDy=0;strokeColor=#ae4132;startArrow=none;startFill=0;endArrow=classic;endFill=1;elbow=vertical;fillColor=#fad9d5;" edge="1" parent="1" source="8">
                    <mxGeometry relative="1" as="geometry">
                        <mxPoint x="460" y="500" as="targetPoint"/>
                    </mxGeometry>
                </mxCell>
                <mxCell id="62" style="edgeStyle=orthogonalEdgeStyle;rounded=0;html=1;exitX=0.25;exitY=0;exitDx=0;exitDy=0;strokeColor=#ae4132;startArrow=classic;startFill=1;endArrow=none;endFill=0;elbow=vertical;fillColor=#fad9d5;" edge="1" parent="1" source="8">
                    <mxGeometry relative="1" as="geometry">
                        <mxPoint x="520" y="269.9999999999999" as="targetPoint"/>
                        <Array as="points">
                            <mxPoint x="500" y="330"/>
                            <mxPoint x="520" y="330"/>
                        </Array>
                    </mxGeometry>
                </mxCell>
                <mxCell id="63" style="edgeStyle=orthogonalEdgeStyle;rounded=0;html=1;exitX=0.75;exitY=0;exitDx=0;exitDy=0;strokeColor=#ae4132;startArrow=classic;startFill=1;endArrow=none;endFill=0;elbow=vertical;fillColor=#fad9d5;" edge="1" parent="1" source="8">
                    <mxGeometry relative="1" as="geometry">
                        <mxPoint x="560" y="270" as="targetPoint"/>
                        <Array as="points">
                            <mxPoint x="540" y="330"/>
                            <mxPoint x="560" y="330"/>
                        </Array>
                    </mxGeometry>
                </mxCell>
                <mxCell id="8" value="FA" style="rounded=0;whiteSpace=wrap;html=1;" vertex="1" parent="1">
                    <mxGeometry x="480" y="350" width="80" height="50" as="geometry"/>
                </mxCell>
                <mxCell id="65" style="edgeStyle=orthogonalEdgeStyle;rounded=0;html=1;exitX=0.5;exitY=1;exitDx=0;exitDy=0;strokeColor=default;elbow=vertical;" edge="1" parent="1" source="71">
                    <mxGeometry relative="1" as="geometry">
                        <mxPoint x="640" y="450" as="targetPoint"/>
                    </mxGeometry>
                </mxCell>
                <mxCell id="66" style="edgeStyle=orthogonalEdgeStyle;rounded=0;html=1;exitX=0.75;exitY=0;exitDx=0;exitDy=0;strokeColor=default;elbow=vertical;endArrow=none;endFill=0;startArrow=classic;startFill=1;" edge="1" parent="1" source="71">
                    <mxGeometry relative="1" as="geometry">
                        <mxPoint x="660" y="310" as="targetPoint"/>
                    </mxGeometry>
                </mxCell>
                <mxCell id="67" style="edgeStyle=orthogonalEdgeStyle;rounded=0;html=1;exitX=0.25;exitY=0;exitDx=0;exitDy=0;strokeColor=default;elbow=vertical;endArrow=none;endFill=0;startArrow=classic;startFill=1;" edge="1" parent="1" source="71">
                    <mxGeometry relative="1" as="geometry">
                        <mxPoint x="620" y="310" as="targetPoint"/>
                        <Array as="points">
                            <mxPoint x="620" y="340"/>
                            <mxPoint x="620" y="340"/>
                        </Array>
                    </mxGeometry>
                </mxCell>
                <mxCell id="68" style="edgeStyle=orthogonalEdgeStyle;rounded=0;html=1;exitX=0.25;exitY=0;exitDx=0;exitDy=0;strokeColor=#ae4132;startArrow=classic;startFill=1;endArrow=none;endFill=0;elbow=vertical;fillColor=#fad9d5;" edge="1" parent="1" source="71">
                    <mxGeometry relative="1" as="geometry">
                        <mxPoint x="640" y="270" as="targetPoint"/>
                        <Array as="points">
                            <mxPoint x="620" y="330"/>
                            <mxPoint x="640" y="330"/>
                        </Array>
                    </mxGeometry>
                </mxCell>
                <mxCell id="69" style="edgeStyle=orthogonalEdgeStyle;rounded=0;html=1;exitX=0.75;exitY=0;exitDx=0;exitDy=0;strokeColor=#ae4132;startArrow=classic;startFill=1;endArrow=none;endFill=0;elbow=vertical;fillColor=#fad9d5;" edge="1" parent="1" source="71">
                    <mxGeometry relative="1" as="geometry">
                        <mxPoint x="680" y="270" as="targetPoint"/>
                        <Array as="points">
                            <mxPoint x="660" y="330"/>
                            <mxPoint x="680" y="330"/>
                        </Array>
                    </mxGeometry>
                </mxCell>
                <mxCell id="100" style="edgeStyle=orthogonalEdgeStyle;rounded=0;html=1;exitX=0;exitY=0.5;exitDx=0;exitDy=0;entryX=1;entryY=0.5;entryDx=0;entryDy=0;strokeColor=default;startArrow=none;startFill=0;endArrow=classic;endFill=1;elbow=vertical;" edge="1" parent="1" source="71" target="8">
                    <mxGeometry relative="1" as="geometry"/>
                </mxCell>
                <mxCell id="101" style="edgeStyle=orthogonalEdgeStyle;rounded=0;html=1;exitX=0;exitY=0.5;exitDx=0;exitDy=0;strokeColor=#ae4132;startArrow=none;startFill=0;endArrow=classic;endFill=1;elbow=vertical;fillColor=#fad9d5;" edge="1" parent="1" source="71">
                    <mxGeometry relative="1" as="geometry">
                        <mxPoint x="580" y="500" as="targetPoint"/>
                    </mxGeometry>
                </mxCell>
                <mxCell id="71" value="FA" style="rounded=0;whiteSpace=wrap;html=1;" vertex="1" parent="1">
                    <mxGeometry x="600" y="350" width="80" height="50" as="geometry"/>
                </mxCell>
                <mxCell id="72" style="edgeStyle=orthogonalEdgeStyle;rounded=0;html=1;exitX=0.5;exitY=1;exitDx=0;exitDy=0;strokeColor=default;elbow=vertical;" edge="1" parent="1" source="79">
                    <mxGeometry relative="1" as="geometry">
                        <mxPoint x="760" y="450" as="targetPoint"/>
                    </mxGeometry>
                </mxCell>
                <mxCell id="73" style="edgeStyle=orthogonalEdgeStyle;rounded=0;html=1;exitX=0;exitY=0.5;exitDx=0;exitDy=0;entryX=1;entryY=0.5;entryDx=0;entryDy=0;strokeColor=default;elbow=vertical;" edge="1" parent="1" source="79" target="71">
                    <mxGeometry relative="1" as="geometry"/>
                </mxCell>
                <mxCell id="74" style="edgeStyle=orthogonalEdgeStyle;rounded=0;html=1;exitX=0.25;exitY=0;exitDx=0;exitDy=0;strokeColor=default;elbow=vertical;endArrow=none;endFill=0;startArrow=classic;startFill=1;" edge="1" parent="1" source="79">
                    <mxGeometry relative="1" as="geometry">
                        <mxPoint x="740" y="310" as="targetPoint"/>
                    </mxGeometry>
                </mxCell>
                <mxCell id="75" style="edgeStyle=orthogonalEdgeStyle;rounded=0;html=1;exitX=0.75;exitY=0;exitDx=0;exitDy=0;strokeColor=default;elbow=vertical;endArrow=none;endFill=0;startArrow=classic;startFill=1;" edge="1" parent="1" source="79">
                    <mxGeometry relative="1" as="geometry">
                        <mxPoint x="780" y="310" as="targetPoint"/>
                    </mxGeometry>
                </mxCell>
                <mxCell id="76" style="edgeStyle=orthogonalEdgeStyle;rounded=0;html=1;exitX=0;exitY=0.5;exitDx=0;exitDy=0;strokeColor=#ae4132;startArrow=none;startFill=0;endArrow=classic;endFill=1;elbow=vertical;fillColor=#fad9d5;" edge="1" parent="1" source="79">
                    <mxGeometry relative="1" as="geometry">
                        <mxPoint x="700" y="500" as="targetPoint"/>
                    </mxGeometry>
                </mxCell>
                <mxCell id="77" style="edgeStyle=orthogonalEdgeStyle;rounded=0;html=1;exitX=0.25;exitY=0;exitDx=0;exitDy=0;strokeColor=#ae4132;startArrow=classic;startFill=1;endArrow=none;endFill=0;elbow=vertical;fillColor=#fad9d5;" edge="1" parent="1" source="79">
                    <mxGeometry relative="1" as="geometry">
                        <mxPoint x="760" y="270" as="targetPoint"/>
                        <Array as="points">
                            <mxPoint x="740" y="330"/>
                            <mxPoint x="760" y="330"/>
                        </Array>
                    </mxGeometry>
                </mxCell>
                <mxCell id="78" style="edgeStyle=orthogonalEdgeStyle;rounded=0;html=1;exitX=0.75;exitY=0;exitDx=0;exitDy=0;strokeColor=#ae4132;startArrow=classic;startFill=1;endArrow=none;endFill=0;elbow=vertical;fillColor=#fad9d5;" edge="1" parent="1" source="79">
                    <mxGeometry relative="1" as="geometry">
                        <mxPoint x="800" y="270" as="targetPoint"/>
                        <Array as="points">
                            <mxPoint x="780" y="330"/>
                            <mxPoint x="800" y="330"/>
                        </Array>
                    </mxGeometry>
                </mxCell>
                <mxCell id="79" value="FA" style="rounded=0;whiteSpace=wrap;html=1;" vertex="1" parent="1">
                    <mxGeometry x="720" y="350" width="80" height="50" as="geometry"/>
                </mxCell>
                <mxCell id="80" style="edgeStyle=orthogonalEdgeStyle;rounded=0;html=1;exitX=0.5;exitY=1;exitDx=0;exitDy=0;strokeColor=default;elbow=vertical;" edge="1" parent="1" source="87">
                    <mxGeometry relative="1" as="geometry">
                        <mxPoint x="880" y="450" as="targetPoint"/>
                    </mxGeometry>
                </mxCell>
                <mxCell id="81" style="edgeStyle=orthogonalEdgeStyle;rounded=0;html=1;exitX=0;exitY=0.5;exitDx=0;exitDy=0;entryX=1;entryY=0.5;entryDx=0;entryDy=0;strokeColor=default;elbow=vertical;" edge="1" parent="1" source="87" target="79">
                    <mxGeometry relative="1" as="geometry"/>
                </mxCell>
                <mxCell id="82" style="edgeStyle=orthogonalEdgeStyle;rounded=0;html=1;exitX=0.25;exitY=0;exitDx=0;exitDy=0;strokeColor=default;elbow=vertical;endArrow=none;endFill=0;startArrow=classic;startFill=1;" edge="1" parent="1" source="87">
                    <mxGeometry relative="1" as="geometry">
                        <mxPoint x="860" y="310" as="targetPoint"/>
                    </mxGeometry>
                </mxCell>
                <mxCell id="83" style="edgeStyle=orthogonalEdgeStyle;rounded=0;html=1;exitX=0.75;exitY=0;exitDx=0;exitDy=0;strokeColor=default;elbow=vertical;endArrow=none;endFill=0;startArrow=classic;startFill=1;" edge="1" parent="1" source="87">
                    <mxGeometry relative="1" as="geometry">
                        <mxPoint x="900" y="310" as="targetPoint"/>
                    </mxGeometry>
                </mxCell>
                <mxCell id="84" style="edgeStyle=orthogonalEdgeStyle;rounded=0;html=1;exitX=0;exitY=0.5;exitDx=0;exitDy=0;strokeColor=#ae4132;startArrow=none;startFill=0;endArrow=classic;endFill=1;elbow=vertical;fillColor=#fad9d5;" edge="1" parent="1" source="87">
                    <mxGeometry relative="1" as="geometry">
                        <mxPoint x="820" y="500" as="targetPoint"/>
                    </mxGeometry>
                </mxCell>
                <mxCell id="85" style="edgeStyle=orthogonalEdgeStyle;rounded=0;html=1;exitX=0.25;exitY=0;exitDx=0;exitDy=0;strokeColor=#ae4132;startArrow=classic;startFill=1;endArrow=none;endFill=0;elbow=vertical;fillColor=#fad9d5;" edge="1" parent="1" source="87">
                    <mxGeometry relative="1" as="geometry">
                        <mxPoint x="880" y="270" as="targetPoint"/>
                        <Array as="points">
                            <mxPoint x="860" y="330"/>
                            <mxPoint x="880" y="330"/>
                        </Array>
                    </mxGeometry>
                </mxCell>
                <mxCell id="86" style="edgeStyle=orthogonalEdgeStyle;rounded=0;html=1;exitX=0.75;exitY=0;exitDx=0;exitDy=0;strokeColor=#ae4132;startArrow=classic;startFill=1;endArrow=none;endFill=0;elbow=vertical;fillColor=#fad9d5;" edge="1" parent="1" source="87">
                    <mxGeometry relative="1" as="geometry">
                        <mxPoint x="920" y="270" as="targetPoint"/>
                        <Array as="points">
                            <mxPoint x="900" y="330"/>
                            <mxPoint x="920" y="330"/>
                        </Array>
                    </mxGeometry>
                </mxCell>
                <mxCell id="87" value="FA" style="rounded=0;whiteSpace=wrap;html=1;" vertex="1" parent="1">
                    <mxGeometry x="840" y="350" width="80" height="50" as="geometry"/>
                </mxCell>
                <mxCell id="88" style="edgeStyle=orthogonalEdgeStyle;rounded=0;html=1;exitX=0.5;exitY=1;exitDx=0;exitDy=0;strokeColor=default;elbow=vertical;" edge="1" parent="1" source="95">
                    <mxGeometry relative="1" as="geometry">
                        <mxPoint x="1000" y="450" as="targetPoint"/>
                    </mxGeometry>
                </mxCell>
                <mxCell id="89" style="edgeStyle=orthogonalEdgeStyle;rounded=0;html=1;exitX=0;exitY=0.5;exitDx=0;exitDy=0;entryX=1;entryY=0.5;entryDx=0;entryDy=0;strokeColor=default;elbow=vertical;" edge="1" parent="1" source="95" target="87">
                    <mxGeometry relative="1" as="geometry"/>
                </mxCell>
                <mxCell id="90" style="edgeStyle=orthogonalEdgeStyle;rounded=0;html=1;exitX=0.25;exitY=0;exitDx=0;exitDy=0;strokeColor=default;elbow=vertical;endArrow=none;endFill=0;startArrow=classic;startFill=1;" edge="1" parent="1" source="95">
                    <mxGeometry relative="1" as="geometry">
                        <mxPoint x="980" y="310" as="targetPoint"/>
                    </mxGeometry>
                </mxCell>
                <mxCell id="91" style="edgeStyle=orthogonalEdgeStyle;rounded=0;html=1;exitX=0.75;exitY=0;exitDx=0;exitDy=0;strokeColor=default;elbow=vertical;endArrow=none;endFill=0;startArrow=classic;startFill=1;" edge="1" parent="1" source="95">
                    <mxGeometry relative="1" as="geometry">
                        <mxPoint x="1020" y="310" as="targetPoint"/>
                    </mxGeometry>
                </mxCell>
                <mxCell id="92" style="edgeStyle=orthogonalEdgeStyle;rounded=0;html=1;exitX=0;exitY=0.5;exitDx=0;exitDy=0;strokeColor=#ae4132;startArrow=none;startFill=0;endArrow=classic;endFill=1;elbow=vertical;fillColor=#fad9d5;" edge="1" parent="1" source="95">
                    <mxGeometry relative="1" as="geometry">
                        <mxPoint x="940" y="500" as="targetPoint"/>
                    </mxGeometry>
                </mxCell>
                <mxCell id="93" style="edgeStyle=orthogonalEdgeStyle;rounded=0;html=1;exitX=0.25;exitY=0;exitDx=0;exitDy=0;strokeColor=#ae4132;startArrow=classic;startFill=1;endArrow=none;endFill=0;elbow=vertical;fillColor=#fad9d5;" edge="1" parent="1" source="95">
                    <mxGeometry relative="1" as="geometry">
                        <mxPoint x="1000" y="270" as="targetPoint"/>
                        <Array as="points">
                            <mxPoint x="980" y="330"/>
                            <mxPoint x="1000" y="330"/>
                        </Array>
                    </mxGeometry>
                </mxCell>
                <mxCell id="94" style="edgeStyle=orthogonalEdgeStyle;rounded=0;html=1;exitX=0.75;exitY=0;exitDx=0;exitDy=0;strokeColor=#ae4132;startArrow=classic;startFill=1;endArrow=none;endFill=0;elbow=vertical;fillColor=#fad9d5;" edge="1" parent="1" source="95">
                    <mxGeometry relative="1" as="geometry">
                        <mxPoint x="1040" y="270" as="targetPoint"/>
                        <Array as="points">
                            <mxPoint x="1020" y="330"/>
                            <mxPoint x="1040" y="330"/>
                        </Array>
                    </mxGeometry>
                </mxCell>
                <mxCell id="95" value="FA" style="rounded=0;whiteSpace=wrap;html=1;" vertex="1" parent="1">
                    <mxGeometry x="960" y="350" width="80" height="50" as="geometry"/>
                </mxCell>
                <mxCell id="96" style="edgeStyle=orthogonalEdgeStyle;rounded=0;html=1;strokeColor=default;elbow=vertical;" edge="1" parent="1" target="95">
                    <mxGeometry relative="1" as="geometry">
                        <mxPoint x="1140" y="375" as="sourcePoint"/>
                        <Array as="points">
                            <mxPoint x="1140" y="375"/>
                        </Array>
                    </mxGeometry>
                </mxCell>
                <mxCell id="103" style="edgeStyle=orthogonalEdgeStyle;rounded=0;html=1;exitX=1;exitY=0.5;exitDx=0;exitDy=0;strokeColor=#ae4132;startArrow=classic;startFill=1;endArrow=none;endFill=0;elbow=vertical;fillColor=#fad9d5;" edge="1" parent="1" source="95">
                    <mxGeometry relative="1" as="geometry">
                        <mxPoint x="1090" y="270" as="targetPoint"/>
                    </mxGeometry>
                </mxCell>
            </root>
        </mxGraphModel>
    </diagram>
</mxfile>